<?xml version="1.0" encoding="utf-8"?>
<!-- Generator: Adobe Illustrator 23.0.3, SVG Export Plug-In . SVG Version: 6.00 Build 0)  -->
<svg version="1.1" id="Layer_1" xmlns="http://www.w3.org/2000/svg" xmlns:xlink="http://www.w3.org/1999/xlink" x="0px" y="0px"
	 viewBox="0 0 250 250" style="enable-background:new 0 0 250 250;" xml:space="preserve">
<style type="text/css">
	.st0{fill:#CB825D;}
	.st1{fill:#FFBB28;}
	.st2{fill:#000347;}
	.st3{fill:#F7C1B3;}
	.st4{fill:#38579C;}
	.st5{fill:#FE6120;}
</style>
<g>
	<g>
		<g>
			<path class="st0" d="M112.07,138.92l17.84,19.32c4.41,4.77,6.08,11.58,4.48,17.99c-1.28,5.12-2.15,10.48-0.43,11.28
				c0,0,4.17,2.68,6.34-19.59c0.41-4.09-0.63-8.2-2.88-11.6l-16.1-24.21C121.33,132.11,108.16,130.9,112.07,138.92z"/>
			<path class="st1" d="M103.38,149.25c-7.55,0.78-15.94,0.8-24.67,0.55c-3.14-0.08-6.32-0.23-9.52-0.38
				c-1.03,1.43-2.15,2.72-3.32,3.88c-12.31,11.98-32.1,9.74-32.1,9.74c-12.92,8.75-25.64,28.7-27.84,25.45
				c-6.54-1.96,23.27-31.76,23.27-31.76c10.06,0.7,17.76-3.84,23.13-13.62c1.28-2.34,2.84-4.47,4.6-6.37l0.06-0.06l0.79-0.8
				l0.06-0.06c1.19-1.2,2.51-2.28,3.89-3.25c2.92-2.05,6.2-3.54,9.72-4.36l16.18-3.8c9.7-2.28,16.63-11.07,16.97-21.28
				c0.04-1.52,0.1-3.04,0.24-4.53l1.52-16.91c-0.06-0.06-0.08-0.13-0.14-0.19c-6.76-1.03-18.25,5.46-18.25,5.46
				c5.16-11.01,13.14-13.16,17.38-13.47c1.74-0.13,2.86,0.06,2.86,0.06c1.22-0.7,2.57-1.01,3.93-1.03c1.34,0,2.69,0.3,3.95,0.91
				l0.55,0.27c0.75,0.36,1.44,0.82,2.03,1.39c0.75,0.7,1.86,0.78,2.73,0.25c4.15-2.53,7.61-5.78,7.61-5.78
				c0.2-0.15,0.41-0.3,0.61-0.42c3.95-2.64,5.73-1.31,6.46,1.01c0.95,2.93,0.24,7.44,0.24,7.44c-1.24,7.99-8.2,9.05-13.51,8.62
				l6.44,19.23l0,0C136.45,125.36,123.7,147.12,103.38,149.25z"/>
			<path class="st0" d="M112.07,72.52c-1.36,0.02-2.71,0.34-3.93,1.03c0,0-1.11-0.19-2.86-0.06c-2.39-3.88-10.45-7.15-10.45-7.15
				C107.03,62.04,112.07,72.52,112.07,72.52z"/>
			<path class="st2" d="M116.89,79.41c-0.53,0.19-1.11-0.08-1.3-0.63c-0.18-0.55,0.08-1.16,0.61-1.35c0.53-0.19,1.11,0.08,1.3,0.63
				C117.68,78.61,117.42,79.2,116.89,79.41z"/>
			<path class="st1" d="M100.83,140.65l14.42,22.2c3.56,5.48,4.11,12.48,1.48,18.51c-2.11,4.83-3.83,9.95-2.25,11.03
				c0,0,3.69,3.37,9.44-18.2c1.05-3.96,0.71-8.2-0.95-11.93l-11.93-26.72C111.06,135.56,98.28,132.04,100.83,140.65z"/>
			<path class="st0" d="M53.55,195.05c0,0-6.05,14.74-5.41-2.64l3.95-23.38c0,0,6.89-1.03,13.79-15.73
				c1.19-1.16,2.31-2.45,3.32-3.88c3.2,0.15,6.38,0.27,9.52,0.38c-0.81,6.58-4.31,20.18-19.34,24.92L53.55,195.05z"/>
			<path class="st1" d="M61.69,132.59c-1.38,0.97-2.69,2.05-3.89,3.25l-0.06,0.06l-0.79,0.8l-0.06,0.06c0,0-14.7-12.82,0.18-49.15
				C57.07,87.59,47.31,125.19,61.69,132.59z"/>
			<path class="st2" d="M136.01,70.15c-3.71,4.01-5.71,0.82-6.46-1.01C133.48,66.53,135.26,67.86,136.01,70.15z"/>
			<path class="st2" d="M120.13,85.93c-1.11-0.55-2.21-1.45-3.3-2.76c-0.1-0.11-0.08-0.3,0.02-0.38c0.1-0.11,0.28-0.08,0.36,0.02
				c1.84,2.19,3.65,3.23,5.49,3.16c0.14,0,0.26,0.11,0.28,0.27c0,0.15-0.1,0.27-0.26,0.3C121.87,86.54,121,86.35,120.13,85.93z"/>
		</g>
		<g>
			<g>
				<path class="st3" d="M172.05,66.61c0,0,30.54,40.19,36.76-4.53c0.06-0.48-0.08-1.01-0.24-1.48l-0.02-0.06
					c-1.13-3.39-5.57-3.88-7.37-0.82l0,0c-0.32,0.57-0.53,1.2-0.59,1.86l-2.09,6.73c-1.44,4.64-6.76,6.54-10.63,3.75l-11.14-8.03
					c0,0-2.55-9.19-4.96-9.3c0,0-1.13-0.21-0.53,3.9l-4.07-2.15c-1.5-0.61-3.2-0.63-4.64,0.13
					C160.05,57.94,160.31,62.77,172.05,66.61z"/>
				<path class="st4" d="M223.33,98.26l-2.84-10.92h-21.43l-4.8,6.81c-2.55,3.65-6.66,5.71-11,5.63
					c-10.25-0.23-27.97,1.81-21.43,19.65l14.6,34.79l7.43-1.75l-6.6-34.62l25.6,4.03c0,0,6.54,0.72,12.37-2.09
					c3.97-1.92,7.63-5.48,8.67-12.04C224.44,104.61,224.12,101.36,223.33,98.26z"/>
				<path class="st1" d="M199.01,67.54c0.61-7.15,5.85-13.14,12.7-13.83c4.82-0.48,9.86,1.64,12.51,10.82
					c6.05,20.94-2.71,26.82-2.71,26.82c-7.27,1.69-14.76,1.08-22.4-1.48c-1.07,0-1.9-0.95-1.82-2.07L199.01,67.54z"/>
				<path class="st4" d="M202.45,106.44l21.81-4.74l-1.13,13.09c-1.34,15.41,0.08,30.98,4.17,45.84c3.6,13.09,7.8,24.17,7.8,24.17
					l-6.93,0.25C228.17,185.05,199.15,142.92,202.45,106.44z"/>
				<path class="st3" d="M193.68,82.53c0,0,45.95,18.37,29.4-23.41c-0.18-0.46-0.57-0.82-0.93-1.14l-0.04-0.04
					c-2.65-2.32-6.68-0.4-6.72,3.21l0,0c0,0.65,0.12,1.31,0.41,1.92l1.5,6.87c1.03,4.77-2.63,9.21-7.31,8.88l-13.53-0.99
					c0,0-11.77-9.07-13.18-6.75c0,0-0.85,0.7,3.81,4.43l-5.43,0.91c-1.6,0.27-3.08,1.14-3.93,2.57
					C176.25,81.46,176.81,84.77,193.68,82.53z"/>
				<path class="st2" d="M165.31,163.93c0.61,0.08,1.42,0.15,2.43,0.11c4.86-0.19,13.39-1.62,14.84-2c2.21-0.55,3.44-2.99,2.67-5.23
					l-1.5-5.04l-7.7,1.39c0,0-10.53,6.98-11.18,7.23C163.43,160.89,163.81,163.71,165.31,163.93z"/>
				<path class="st2" d="M216.55,193.59c0.55,0.17,1.28,0.32,2.23,0.42c4.52,0.49,12.58,0.27,13.97,0.13
					c2.11-0.21,3.54-2.3,3.12-4.47l-0.77-4.87l-7.29,0.25c0,0-10.59,5.04-11.24,5.19C215.19,190.56,215.19,193.21,216.55,193.59z"/>
				<path class="st3" d="M207.21,58.85V47.28h7.29l1.22,8.33c0.34,2.3-1.07,4.47-3.26,5.02l-2.41,0.59
					C208.61,61.55,207.21,60.41,207.21,58.85z"/>
				<g>
					<path class="st3" d="M225.88,38.92c0.51-2.66-0.3-6.12-2.41-6.24c-0.63-0.04-1.34,0.23-2.03,0.7
						c-1.8-7.44-7.41-15.65-12.7-15.94c-6.93-0.4-12.78,3.35-13.26,21.99c-0.18,7.38,4.52,13.12,11.32,14.13
						c5.12,0.76,11.2-3.29,13.81-9.38C222.84,43.42,225.23,42.3,225.88,38.92z"/>
					<g>
						<path class="st2" d="M211.12,39.22c-0.04,0.82-0.67,1.45-1.4,1.41c-0.73-0.04-1.28-0.76-1.22-1.58
							c0.04-0.82,0.67-1.45,1.4-1.41C210.61,37.68,211.16,38.38,211.12,39.22z"/>
						<path class="st2" d="M201.44,38.59c-0.04,0.82-0.67,1.45-1.4,1.41c-0.73-0.04-1.28-0.76-1.22-1.58
							c0.04-0.82,0.67-1.45,1.4-1.41C200.93,37.05,201.48,37.74,201.44,38.59z"/>
						<path class="st2" d="M212.98,36.16c-0.16,0-0.32-0.13-0.38-0.3c-1.05-2.76-3.46-1.94-3.56-1.9c-0.24,0.08-0.49-0.04-0.57-0.3
							c-0.08-0.25,0.04-0.51,0.28-0.59c1.15-0.4,3.6-0.4,4.7,2.45c0.08,0.23-0.02,0.51-0.24,0.61
							C213.1,36.16,213.04,36.16,212.98,36.16z"/>
						<path class="st2" d="M202.67,33.21c-0.12,0.08-0.26,0.11-0.4,0.04c-2.13-1.16-3.22,0.74-3.28,0.82
							c-0.1,0.19-0.34,0.25-0.51,0.15c-0.18-0.11-0.24-0.36-0.12-0.53c0.51-0.91,2.09-2.32,4.27-1.12c0.18,0.11,0.26,0.34,0.16,0.53
							C202.75,33.13,202.71,33.17,202.67,33.21z"/>
						<path class="st2" d="M206.04,47.06c0.06-0.13,0.18-0.23,0.34-0.23c2.39-0.02,2.51-2.24,2.51-2.32c0-0.21,0.18-0.38,0.38-0.38
							s0.36,0.19,0.36,0.4c-0.04,1.05-0.79,3.06-3.26,3.08c-0.2,0-0.38-0.17-0.38-0.38C206,47.17,206.02,47.11,206.04,47.06z"/>
						<path class="st2" d="M202.39,45c-0.81-0.06-1.22-0.51-1.38-0.74c-0.38-0.55-0.41-1.33-0.04-1.88
							c0.38-0.59,1.34-0.86,1.44-0.91c0.22-0.06,0.43,0.06,0.49,0.3s-0.06,0.44-0.28,0.51c-0.3,0.08-0.83,0.32-0.97,0.57
							c-0.18,0.27-0.16,0.65,0.02,0.95c0.26,0.38,0.81,0.48,1.56,0.3c0.22-0.06,0.43,0.08,0.49,0.3c0.06,0.23-0.08,0.44-0.28,0.51
							C203.04,45,202.69,45.02,202.39,45z"/>
					</g>
					<path class="st2" d="M187.79,23.57c1.07-3.56,6.36-4.49,9.36-4.58c1.98-0.06,9.8-1.88,10.87-2.09c3.69-0.74,5.63-0.3,7.23,0.51
						c2.03,1.01,3.5,2.68,4.82,4.55c1.68,2.36,2.03,4.68,1.74,7.61c-0.04,0.38,0.2,3.52-0.14,3.75c-0.02,0.02-0.04,0.02-0.08,0.02
						c-2.25,0.04-3.26,7.89-2.71,9.68c-0.38-0.95-1.09-1.88-1.62-2.76c-0.83-1.48-1.32-3.08-1.52-4.77
						c-0.16-1.24-0.14-2.51,0.08-3.73c0,0-2.05-1.24-1.94-2.05c-3.18,3.65-7.59,2.61-11.24,0.51c-0.89,1.22-3.04,2.05-4.46,2.3
						c-1.36,0.25-3.5-0.04-4.48-1.12c-0.32-0.36-0.49-1.14-0.79-1.24c-0.32-0.11-1.17,0.42-1.5,0.53c-2.86,0.89-2.33-2.95-1.17-4.49
						C188.56,25.89,187.12,25.79,187.79,23.57z"/>
				</g>
			</g>
			<path class="st4" d="M198.3,18.87c5.22-0.61,9.7,1.37,13.24,4.11c3.62,2.8,6.3,6.41,7.86,8.84c1.03,1.62,1.58,2.72,1.58,2.72
				c3.24-6.28,4.48-10.37,1.48-15.37c-0.26-0.42-0.53-0.84-0.77-1.22c-1.36-1.96-2.75-3.37-4.29-4.34
				c-2.67-1.67-5.73-1.96-9.46-1.37C201.01,13.35,198.3,18.87,198.3,18.87z"/>
			<path class="st1" d="M211.54,22.98c3.62,2.8,6.3,6.41,7.86,8.84c1.03-2.97,2.53-8.31,2.29-13.87c-1.36-1.96-2.75-3.37-4.29-4.34
				L211.54,22.98z"/>
			<path class="st5" d="M220.84,34.26c0,0-9.88-27.37-24.38-25.79c-3.22,0.36-4.8,4.47-2.63,6.98c0.91,1.05,2.27,2.26,4.25,3.56
				C198.1,19,209.5,16.53,220.84,34.26z"/>
		</g>
	</g>
</g>
<g>
	<g>
		<path class="st4" d="M187.55,229.77c1.96-3.63,4.98-6.62,6.38-10.56c0.89-2.53,4.82-1.43,3.91,1.12
			c-1.56,4.36-4.62,7.59-6.78,11.58C189.77,234.27,186.27,232.14,187.55,229.77L187.55,229.77z"/>
		<path class="st4" d="M183.74,227.67c0.18-2.3-0.1-4.55-0.43-6.81c-0.16-1.14,0.28-2.26,1.42-2.59c0.95-0.3,2.33,0.36,2.49,1.48
			c0.38,2.64,0.79,5.27,0.59,7.95C187.57,230.37,183.52,230.39,183.74,227.67L183.74,227.67z"/>
		<path class="st4" d="M178.23,227.71c-1.38-3.8-2.17-8.22-4.35-11.62c-1.46-2.26,2.05-4.36,3.5-2.13
			c2.39,3.69,3.26,8.52,4.76,12.63C183.07,229.12,179.16,230.22,178.23,227.71L178.23,227.71z"/>
		<path class="st4" d="M176.23,234.43c-2.47-2.34-4.9-4.74-7.09-7.38c-1.68-2.05,1.15-5.04,2.86-2.97c2.19,2.64,4.62,5.04,7.09,7.38
			C181.02,233.28,178.15,236.25,176.23,234.43L176.23,234.43z"/>
	</g>
</g>
</svg>
