<?xml version="1.0" encoding="utf-8"?>
<!-- Generator: Adobe Illustrator 23.0.3, SVG Export Plug-In . SVG Version: 6.00 Build 0)  -->
<svg version="1.1" id="Layer_1" xmlns="http://www.w3.org/2000/svg" xmlns:xlink="http://www.w3.org/1999/xlink" x="0px" y="0px"
	 viewBox="0 0 250 250" style="enable-background:new 0 0 250 250;" xml:space="preserve">
<style type="text/css">
	.st0{fill:#000347;}
	.st1{fill:#FE6120;}
	.st2{fill:#F7C1B3;}
	.st3{fill:#4DBFDD;}
	.st4{fill:#38579C;}
	.st5{fill:#FFBB28;}
</style>
<g>
	<g>
		<g>
			<path class="st0" d="M156.17,167.78c0,0-20.78,0.83-23.42-19.67c0,0-4.61,20.56,22.09,23.19L156.17,167.78z"/>
			<path class="st0" d="M237.82,153.4c-0.66-0.6-1.34-1.13-2.08-1.56c-2.44-1.42-5.55,0.32-5.74,3.17
				c-0.05,0.76-0.02,1.51,0.18,2.19c0.63,2.13,1.15,5.74,3.59,6.41c1.88,0.51,7.58-1.39,8.24-3.57
				C242.65,157.88,239.23,154.7,237.82,153.4z"/>
			<path class="st1" d="M136.51,236.51l4.4-14.88c2.41-0.74,4.43-1.76,6.13-2.98c1.5-1.08,2.75-2.32,3.77-3.61
				c0.09-0.11,0.17-0.22,0.24-0.32c0.98-1.27,1.74-2.59,2.35-3.89c0.64-1.44,1.12-2.84,1.45-4.12c0,0,0-0.02,0-0.03
				c0.02-0.08,0.05-0.17,0.06-0.26c0.29-1.24,0.47-3.03,0.41-3.03c0.72-5.71,1.79-17.49-0.47-25.06l-7.03-3.75
				c0,0-0.6,9.87-1.13,18.53c-0.14,2.07-0.26,4.08-0.37,5.87c-0.05,0.51-0.08,0.99-0.11,1.45c-0.34,5.03-2.23,9.88-5.67,13.54
				c-1.3,1.4-2.46,2.25-3.35,2.76c-0.78,0.43-1.39,1.1-1.79,1.88c-0.23,0.42-0.38,0.88-0.46,1.37l-1.13,6.47l-1.41,8.14
				C131.94,247.3,136.51,236.51,136.51,236.51z"/>
			<path class="st1" d="M207.62,187.65c1.04,7.41,2.57,14.79,4.61,21.82c0.67,2.33,1.41,4.63,2.22,6.89
				c0.98,2.72,2.03,5.36,3.19,7.9c1.13,2.47,2.35,4.85,3.67,7.1c1.34,2.33,2.81,4.52,4.37,6.56c0.43,0.57,1.01,1.08,1.71,1.24
				c5.99,1.25,8.02-1.3,8.02-1.3c0.32-3.07-5.58-2.15-5.58-2.15c-4.93-9.12-8.07-20.07-9.56-31.4c-0.17-1.24-0.32-2.47-0.44-3.72
				c-0.55-5.45-0.73-10.95-0.57-16.35L207.62,187.65z"/>
			<path class="st2" d="M147.94,176.93c0,0,0.08,0.4,0.24,1.11c0.38,1.64,1.21,4.94,2.54,8.91c1.13,3.47,2.66,7.47,4.58,11.32
				c1.48,2.93,2.12,6.19,1.96,9.4c-0.11,2.42-0.66,4.83-1.65,7.09l-0.12,0.28l-1.16,2.62c-0.99,2.27-0.95,4.89,0.17,7.12
				c5.82,11.52,11.8,16.81,17.89,16.74c0,0,6.2-2.7-4.32-4.88l-7.15-10.22c-1.99-2.84-2.02-6.61-0.09-9.48l1.93-2.89
				c2.22-3.32,3.73-7.04,4.4-10.95c0.34-1.81,0.47-3.64,0.41-5.5c0-0.39-0.02-0.77-0.05-1.16c-0.37-5.03,0.92-11.3,8.08-14.9
				c1.33-0.66,2.92-0.37,3.88,0.77c3.77,4.52,13.93,16.18,19.65,18.03l-2.31,17.79l-0.9,6.98l-2.14,16.44c0,0,15.03,2.02,14.51-2.61
				c0,0-3.82-1.22-8.91-1.3l0.52-2.81l1.39-7.44l3.47-18.67l1.05-5.64l0.7-3.78c0,0,13.84-7.64,14.25-22.39l2.12-2.87l3.45-4.66
				l0.44-0.59c0.95-1.28,2.52-1.95,4.08-1.71c4.37,0.66,13.23,1.2,15.57-4.6c0.03-0.08,0.08-0.15,0.14-0.23
				c0.86-1.13,0.37-2.75-1.02-3h-0.03l-16.61-7.55l-4.52,6.14c-1.97,2.67-4.29,4.99-6.88,6.92c-2.64,1.98-5.55,3.55-8.63,4.63
				c-4.06,1.47-8.45,2.1-12.88,1.81c-5.07-0.34-11.12-1.3-18.27-3.29c0,0-0.72-0.17-1.94-0.42c-1.96-0.37-5.19-0.93-8.8-1.19
				C157.9,165.63,146.55,166.74,147.94,176.93z"/>
			<path class="st0" d="M244.76,160.68c0,0.86,0.72,1.61,1.68,1.82c0.03-0.08,0.08-0.15,0.14-0.23c0.86-1.13,0.37-2.75-1.02-3h-0.03
				C245.05,159.61,244.76,160.12,244.76,160.68z"/>
			<path class="st0" d="M238.31,158.95c-0.2,0.42-0.69,0.6-1.1,0.4c-0.41-0.2-0.6-0.69-0.4-1.11c0.2-0.42,0.69-0.6,1.1-0.4
				C238.33,158.03,238.51,158.53,238.31,158.95z"/>
			<path class="st0" d="M240.2,164.44c-0.86-0.4-1.62-1.27-2.31-2.59c-0.06-0.12-0.02-0.32,0.11-0.48c0.12-0.15,0.26-0.17,0.32-0.05
				c1.15,2.22,2.51,3.07,4.14,2.58c0.12-0.03,0.21,0.08,0.18,0.26c-0.03,0.19-0.15,0.36-0.29,0.4
				C241.58,164.8,240.86,164.75,240.2,164.44z"/>
			<path class="st0" d="M225.28,150.9c0.81-0.37,1.63-0.66,2.44-0.85c2.75-0.6,5.18,2.01,4.51,4.77c-0.18,0.74-0.44,1.45-0.83,2.02
				c-1.24,1.84-2.83,5.11-5.36,4.99c-1.94-0.09-6.8-3.66-6.77-5.93C219.33,153.67,223.55,151.69,225.28,150.9z"/>
			<g>
				<path class="st0" d="M199.11,175.11c0.06-0.11,0.12-0.2,0.2-0.28c0.37-0.39,0.95-0.48,1.48-0.46c1.44,0.06,2.87,0.08,4.29,0.31
					c1.05,0.17,3.12,0.37,3.51,1.61c0.06,0.19,0.05,0.39-0.03,0.57c-0.57,1.28-2.92,0.43-3.97,1.3c-1.42,1.2-3.73,1.57-5.41,0.66
					c-0.38-0.22-0.72-0.56-0.81-1c-0.06-0.32,0.02-0.66,0.11-0.99c0.12-0.42,0.26-0.83,0.41-1.24
					C198.95,175.42,199.01,175.27,199.11,175.11z"/>
				<path class="st0" d="M133.84,226.45c0.05,0.03,0.11,0.05,0.15,0.06c0.41,0.11,0.84,0.22,1.25,0.31
					c0.32,0.06,0.67,0.12,0.99,0.03c0.41-0.12,0.73-0.48,0.92-0.9c0.76-1.76,0.2-4.05-1.1-5.39c-0.44-0.46-0.52-1.22-0.63-1.96
					c-0.23,0.42-0.38,0.88-0.46,1.37L133.84,226.45z"/>
				<path class="st0" d="M214.17,203.87c0.09,0.45,0.43,0.79,0.81,1c1.62,0.88,3.87,0.54,5.29-0.57c-0.17-1.24-0.32-2.47-0.44-3.72
					c-1.07-0.11-2.15-0.12-3.24-0.15c-0.52-0.03-1.12,0.06-1.48,0.46c-0.08,0.08-0.14,0.17-0.2,0.28c-0.09,0.15-0.15,0.31-0.21,0.48
					c-0.15,0.4-0.29,0.82-0.41,1.24C214.19,203.21,214.11,203.55,214.17,203.87z"/>
				<path class="st0" d="M217.64,224.25c1.13,2.47,2.35,4.85,3.67,7.1c0.4-0.17,0.78-0.36,1.18-0.54c0.29-0.15,0.6-0.31,0.79-0.59
					c0.26-0.36,0.29-0.85,0.18-1.27c-0.47-1.87-2.31-3.33-4.16-3.58C218.69,225.3,218.16,224.76,217.64,224.25z"/>
				<path class="st0" d="M212.23,209.46c0.67,2.33,1.41,4.63,2.22,6.89c0.06,0.02,0.11,0.02,0.17,0.02c0.12,0,0.23-0.02,0.35-0.05
					c0.17-0.03,0.34-0.09,0.49-0.17c0.4-0.15,0.79-0.34,1.18-0.52c0.31-0.15,0.61-0.32,0.81-0.59c0.26-0.36,0.29-0.85,0.18-1.28
					c-0.47-1.85-2.31-3.32-4.16-3.57C213.02,210.13,212.61,209.82,212.23,209.46z"/>
				<path class="st0" d="M148.18,178.04c0.38,1.64,1.21,4.94,2.54,8.91c0.05,0.02,0.09,0.03,0.14,0.05
					c0.12,0.03,0.23,0.03,0.35,0.03c0.17-0.02,0.35-0.05,0.52-0.08c0.41-0.09,0.84-0.19,1.25-0.31c0.32-0.09,0.64-0.2,0.89-0.42
					c0.32-0.31,0.44-0.79,0.41-1.22c-0.12-1.91-1.65-3.71-3.41-4.29C149.74,180.34,149.21,178.41,148.18,178.04z"/>
				<path class="st0" d="M219.73,172.56c0.08,0.43,0.41,0.79,0.81,1c0.7,0.39,1.53,0.54,2.35,0.49l3.45-4.66
					c-1.39-0.22-2.8-0.23-4.2-0.29c-0.53-0.02-1.12,0.08-1.48,0.46c-0.08,0.09-0.15,0.19-0.2,0.29c-0.09,0.14-0.15,0.31-0.21,0.48
					c-0.15,0.4-0.29,0.82-0.41,1.24C219.75,171.9,219.67,172.24,219.73,172.56z"/>
				<path class="st0" d="M208.88,169.41c0.05,0.25,0.09,0.49,0.14,0.74c0.06,0.32,0.15,0.66,0.35,0.93
					c0.28,0.36,0.73,0.51,1.18,0.51c1.89,0.02,3.77-1.4,4.48-3.13c0.52-1.27,3.01-1.62,2.92-3.03c-0.02-0.2-0.09-0.37-0.24-0.51
					c-0.06-0.06-0.12-0.11-0.18-0.14C214.87,166.76,211.97,168.33,208.88,169.41z"/>
				<path class="st0" d="M178.27,175.34c-0.03,0.06-0.06,0.14-0.09,0.2c-0.18,0.29-0.53,0.42-0.87,0.46
					c-0.9,0.12-1.79,0.29-2.7,0.31c-0.67,0.02-1.97,0.14-2.37-0.59c-0.06-0.11-0.08-0.23-0.05-0.36c0.2-0.86,1.77-0.6,2.32-1.27
					c0.75-0.91,2.14-1.42,3.28-1.05c0.26,0.09,0.52,0.26,0.61,0.52c0.08,0.2,0.06,0.42,0.05,0.63c-0.03,0.28-0.06,0.54-0.11,0.82
					C178.31,175.13,178.3,175.25,178.27,175.34z"/>
				<path class="st0" d="M185.26,174.66c-0.08-0.03,0.49-0.63,0.58-0.69c0.34-0.19,0.72-0.2,1.05-0.02c0.34,0.19,0.6,0.49,0.79,0.82
					c0.7,1.13,0.93,2.53,0.64,3.83c-0.27,1.24-1.05,1.62-2.26,1.44c-2.25-0.34-3.16-2.25-2.35-4.34
					C183.96,175.06,184.51,174.42,185.26,174.66z"/>
				<path class="st0" d="M211.95,178.95c-0.05-0.05,0.58-0.2,0.64-0.2c0.29,0.02,0.53,0.17,0.69,0.43c0.15,0.26,0.18,0.56,0.18,0.85
					c-0.02,1-0.43,2.01-1.15,2.72c-0.67,0.68-1.33,0.6-2.03-0.02c-1.3-1.14-1.12-2.75,0.26-3.75
					C210.96,178.68,211.57,178.49,211.95,178.95z"/>
				<path class="st0" d="M168.37,178.07c-0.05-0.05,0.58-0.2,0.64-0.2c0.29,0.02,0.53,0.17,0.69,0.43c0.15,0.26,0.18,0.56,0.18,0.85
					c-0.02,1-0.43,2.01-1.15,2.72c-0.67,0.68-1.33,0.6-2.03-0.02c-1.3-1.14-1.12-2.75,0.26-3.75
					C167.37,177.8,167.98,177.61,168.37,178.07z"/>
				<path class="st0" d="M195.91,188.64c-0.05-0.05,0.58-0.2,0.64-0.2c0.29,0.02,0.53,0.17,0.69,0.43c0.15,0.26,0.18,0.56,0.18,0.85
					c-0.02,1-0.43,2.01-1.15,2.72c-0.67,0.68-1.33,0.6-2.03-0.02c-1.3-1.14-1.12-2.75,0.26-3.75
					C194.92,188.36,195.53,188.17,195.91,188.64z"/>
				<path class="st0" d="M160.34,185.24l-0.05-0.06c1.5-2.41,3.25,1.17,3.21,2.7c-0.06,1.81-0.29,3.03-2.38,2.72
					c-2.25-0.34-3.16-2.24-2.35-4.34C159.15,185.28,159.79,184.99,160.34,185.24z"/>
				<path class="st0" d="M152.89,210.77c0.18,0.03,0.37,0.05,0.52,0.05c0.64-1.44,1.12-2.84,1.45-4.12c0,0,0-0.02,0-0.03
					c0.02-0.08,0.05-0.17,0.06-0.26c-0.58-1.45-1.77-2.76-2.84-1.05l0.03,0.06c-0.55-0.25-1.19,0.06-1.56,1.02
					C149.73,208.52,150.64,210.44,152.89,210.77z"/>
				<path class="st0" d="M146.33,198.96c0.2,0.08,0.4,0.12,0.63,0.15c2.09,0.32,2.32-0.91,2.38-2.72c0.05-1.33-1.3-4.25-2.64-3.3
					C146.56,195.17,146.44,197.17,146.33,198.96z"/>
				<path class="st0" d="M164.22,174.12c-0.05,0.03-0.09,0.06-0.14,0.09c-0.69,0.39-1.5,0.48-2.28,0.46
					c-1.56-0.02-3.12-0.4-4.55-1.02c-0.57-0.23-1.19-0.65-1.18-1.27c0.02-0.63,0.72-1,1.33-1.1c0.09-0.02,0.18-0.02,0.31-0.03
					c1.04-0.06,2.05-0.28,3.01-0.65c0.46-0.19,0.95-0.32,1.33-0.34c0.69-0.02,1.39,0.05,2,0.37c0.61,0.31,1.12,0.91,1.18,1.61
					C165.28,173.01,164.84,173.71,164.22,174.12z"/>
				<path class="st0" d="M143.6,216.66c-0.02,0.62,0.61,1.02,1.18,1.27c0.73,0.31,1.5,0.56,2.26,0.73c1.5-1.08,2.75-2.32,3.77-3.61
					c0.09-0.11,0.17-0.22,0.24-0.32c-0.47-0.14-0.98-0.17-1.48-0.15c-0.37,0-0.86,0.15-1.33,0.32c-0.96,0.37-1.97,0.6-3.01,0.66
					c-0.11,0-0.21,0.02-0.31,0.02C144.32,215.65,143.61,216.02,143.6,216.66z"/>
				<path class="st0" d="M162.93,205.42c0.49,0.37,1.18,0.08,1.7-0.25c0.92-0.57,1.77-1.25,2.52-2.07c0.34-1.81,0.47-3.64,0.41-5.5
					c-0.47-0.11-0.98,0-1.41,0.23c-0.61,0.31-1.07,0.86-1.47,1.44c-0.2,0.31-0.37,0.8-0.49,1.28c-0.26,1.02-0.67,1.98-1.22,2.87
					c-0.06,0.09-0.11,0.17-0.15,0.26C162.53,204.24,162.42,205.03,162.93,205.42z"/>
				<path class="st0" d="M157.26,207.67c0.15-0.12,0.31-0.23,0.49-0.32c0.61-0.32,1.39-0.39,1.97-0.03c0.64,0.37,0.95,1.16,0.92,1.9
					c0,0.05,0,0.11-0.02,0.15c-0.08,0.8-0.47,1.51-0.95,2.16c-0.92,1.27-2.12,2.33-3.45,3.17c-0.21,0.14-0.47,0.26-0.73,0.34
					L157.26,207.67z"/>
				<path class="st0" d="M166.75,166.9c-0.02,0.6,0.63,1.02,1.19,1.25c1.44,0.62,2.99,0.99,4.55,1.02c0.78,0,1.6-0.08,2.28-0.48
					c0.05-0.02,0.09-0.05,0.14-0.08c0.4-0.26,0.73-0.65,0.89-1.1c-1.96-0.37-5.19-0.93-8.8-1.19
					C166.84,166.48,166.75,166.68,166.75,166.9z"/>
				<path class="st0" d="M200.89,210.9c0.49,0.36,1.18,0.05,1.68-0.31c0.79-0.54,1.54-1.16,2.18-1.85l1.05-5.64
					c-0.61-0.32-1.36-0.23-1.96,0.11c-0.6,0.34-1.05,0.9-1.42,1.48c-0.18,0.32-0.34,0.82-0.44,1.31c-0.23,1.02-0.6,1.99-1.13,2.9
					c-0.05,0.09-0.11,0.19-0.14,0.26C200.45,209.74,200.37,210.53,200.89,210.9z"/>
				<path class="st0" d="M195.91,225.12c0.14-0.06,0.29-0.15,0.41-0.25c1.3-0.88,2.48-1.98,3.36-3.27c0.43-0.66,0.81-1.39,0.87-2.19
					v-0.15c0-0.76-0.34-1.51-0.98-1.87c-0.61-0.32-1.38-0.23-1.97,0.11c-0.31,0.17-0.57,0.4-0.79,0.65L195.91,225.12z"/>
				<path class="st0" d="M198.51,234.95c0.41,0.29,0.93,0.14,1.39-0.11l1.39-7.44c-0.52,0.32-0.9,0.83-1.22,1.36
					c-0.2,0.32-0.34,0.8-0.44,1.3c-0.23,1.02-0.61,2.01-1.13,2.9c-0.06,0.09-0.11,0.19-0.14,0.26
					C198.08,233.79,198.01,234.6,198.51,234.95z"/>
				<path class="st0" d="M201.95,191.83c1.08-0.4,2.12-0.86,2.92-1.71c0.23-0.25,0.46-0.46,0.66-0.65c1.08-1.02,2.11-1.98,3.21-1.33
					c1.62,1.11-0.41,2.33-1.62,3.95c-1.02,1.37-1.33,3.46-3.42,3.35c-1.21-0.06-2.32-1-2.38-2.3
					C201.26,192.36,201.52,191.99,201.95,191.83z"/>
				<path class="st0" d="M198.08,185.02c-0.63-0.52-1.3-0.99-2.09-1.17c-0.23-0.06-0.46-0.12-0.63-0.17
					c-1.01-0.29-2.18-0.37-1.97-1.5c0.09-1.59,1.56-0.6,2.99-0.45c1.21,0.12,2.58-0.43,3.28,0.9c0.4,0.77,0.24,1.81-0.53,2.32
					C198.65,185.25,198.33,185.24,198.08,185.02z"/>
			</g>
			<path class="st3" d="M227.26,172.49c0,0-10.91-5.43-11.03-9.79l1.73-1.82c2.77,4.46,6.48,7.47,10.89,9.4L227.26,172.49z"/>
		</g>
		<g>
			<g>
				<path class="st2" d="M81.86,105.06c0.18,0.25,0.37,0.49,0.55,0.73c0.93,1.2,1.86,2.38,2.77,3.54c0.69,0.76,4.78,5.68,6.23,3.46
					c-0.93-1.3-1.93-2.58-2.81-3.88c3.32,0.85,7.87,1.62,10.97,1.62c1.7,0,1.76-1.44,1.21-2.08c-3.47-4.14-8.49-5.17-13.67-5.14
					L81.86,105.06z"/>
				<path class="st4" d="M54.83,46.18v0.08c0.11,1.27,0.28,2.58,0.49,3.92c3.68,23.25,22.61,56.21,22.61,56.21l3.93-1.33l5.24-1.76
					c-0.02-0.03-0.03-0.05-0.05-0.08c-5.24-8.31-8.3-15.19-11.6-24.73c-0.14-0.43-0.28-0.85-0.41-1.27
					c-0.08-0.19-0.12-0.37-0.18-0.57c-1.71-5.68-2.96-10.64-3.54-13.02c-0.14-0.59-0.24-1.02-0.31-1.27
					c-0.03-0.14-0.05-0.22-0.05-0.22c-1.18-5.33-2.17-10.73-3.13-16.13c0.24-1.71-1.53-4.48-2.23-5.19
					c-0.05-0.06-0.11-0.12-0.15-0.15c0,0,0-0.03-0.02-0.03c-0.03-0.05-0.05-0.06-0.09-0.09c0,0.02-0.02,0.02-0.05,0
					c-0.08-0.09-0.02-0.03-0.08-0.08c-0.06-0.05-0.09-0.06-0.17-0.11c-1.74-0.93-3.44-0.93-5.3-0.4c-0.7,0.19-1.44,0.69-1.97,0.99
					c-1.65,0.93-2.67,3.83-2.89,4.96c-0.02,0.08-0.03,0.14-0.05,0.2c0,0,0,0,0,0.02C54.85,46.15,54.85,46.16,54.83,46.18z"/>
			</g>
			<path class="st3" d="M216.77,163.79c-13.12-14.16-28.95-23-48.75-21.94c-16.32,0.88-31.5,5.99-47.91,2.24
				c-12.09-2.76-22.32-9.8-28.11-21c-5.79-11.19-10.83-27.02-6.22-39.34c0.69-1.84,3.65-1.05,2.95,0.82
				c-4.92,13.14,1.85,33.81,10.73,44.28c10.59,12.47,28.3,14.87,43.62,13.29c14.42-1.47,28.17-5.45,42.69-1.98
				c13.35,3.21,24.05,11.56,33.17,21.41C220.27,163.07,218.11,165.25,216.77,163.79L216.77,163.79z"/>
			<path class="st1" d="M48.47,46.06c0.47-2.56,1.12-5.81,2.31-8.06c1.05-1.98,2.51-3.55,3.67-5.36c2.84-4.43,1.36-9.25,1.76-14.16
				c0.23-2.83,0.99-5.53,3.07-7.07c0.02-0.02,0.05-0.03,0.06-0.05c1.77-1.25,4.22,0.22,4.19,2.39c-0.06,3.54,3.12,4.94,5.32,6.02
				c4.11,2.04,6.66,5.11,7.59,11.07c0.69,4.35,0,8.82-1.91,12.88c-2.64,5.6-8.24,6.81-11.34,12.07C61,59.5,59.66,65.71,62.61,68.7
				c2.14,2.18,5.19,2.13,7.81,0.57c-3.24,7.5-12.83,3.63-16.59,0.9c-3.24-2.35-4.83-4.99-5.91-9.88
				C46.9,55.8,47.59,50.8,48.47,46.06z"/>
			<path class="st1" d="M43.52,60.69c2.93-2.79,1.36-7.4-0.99-9.9c-3.35-3.57-9.12-3.57-11.99-7.47c-2.08-2.83-2.92-6.16-2.35-9.65
				c0.78-4.76,3.3-7.57,7.46-9.82c2.57-1.39,6.45-3.32,4.93-6.85l0.96,1.28c-0.5-2.62,1.38-3.38,3.65-2.49
				c2.18,0.85,3.04,2.81,3.36,4.97c0.55,3.72-0.81,7.7,2.23,10.67c1.25,1.2,2.8,2.19,3.93,3.54c1.3,1.54,2.05,3.95,2.61,5.87
				c1.05,3.52,1.91,7.29,1.02,10.93c-0.96,3.97-2.52,6.28-5.78,8.63c-3.77,2.73-13.51,7.32-17.05,2.05
				C38.25,63.19,41.39,62.73,43.52,60.69z"/>
			<path class="st2" d="M71.01,62.37c-0.02-0.08-0.03-0.14-0.05-0.22C70.96,62.16,70.98,62.24,71.01,62.37z"/>
			<polygon class="st2" points="65.34,40.54 65.33,40.54 65.34,40.56 			"/>
			<path class="st2" d="M55.2,49.68c0.06,0.22,0.06,0.26,0.12,0.49c-0.21-1.34-0.38-2.66-0.49-3.92c0,0.03,0,0.06-0.02,0.08
				C54.71,47.63,54.91,48.42,55.2,49.68z"/>
			<g>
				<path class="st2" d="M72.22,109.15v0.57c0-0.17-0.02-0.37-0.02-0.57H72.22z"/>
				<path class="st1" d="M28.22,230.78l0.41-0.77l0,0c0-0.02,0-0.02,0-0.02l2.34-2.58c0,0,1.18-7.47,3.32-17.42
					c2.14,1.64,4.29,3.06,6.42,4.28l-6.26,15.22c0,0,1.08,5.9,4.26,6.65c-0.15,0.19-0.37,0.34-0.64,0.43
					c0.28-0.09,0.47-0.25,0.63-0.43c0.23,0.06,0.44,0.08,0.69,0.08l1.27,0.2c1.33,0.25,2.18,1.57,1.83,2.9l-6.43,0.96
					c-1.13,0.17-2.23-0.36-2.83-1.34c-1.01-1.7-2.44-3.09-4.14-4.09C27.63,234.03,27.24,232.11,28.22,230.78z"/>
			</g>
			<path class="st4" d="M44.4,55.15c0.44,2.98,1.05,6.35,1.77,8.65l2.52,7.9c0.03,0.12,0.08,0.25,0.11,0.37
				c0.37,1.2,0.69,2.42,0.98,3.64c0.06,0.26,0.11,0.52,0.12,0.77c0.11,0.54,0.17,1.07,0.2,1.59c0.12,2.32-0.55,7.4-1.56,10.93
				c7.09,1.95,16.42,3.57,22.51,1.11c-0.41-6.33-0.78-11.72-0.78-11.95c0.64-2.24,1.3-4.15,1.77-4.86l0.11-0.17l0.66-0.96l1.65-2.41
				c0.98-1.4,1.62-3,1.91-4.65c0.61-3.46-0.55-7.01-2.86-9.66L62.7,42.94c-0.32-0.39-0.69-0.74-1.07-1.05c0,0,0,0-0.02-0.02
				c-0.29-0.26-0.61-0.48-0.93-0.68c-0.08-0.05-0.15-0.09-0.23-0.14c-0.12-0.08-0.23-0.14-0.35-0.2c-0.24-0.14-0.49-0.26-0.75-0.36
				c-0.05-0.03-0.11-0.05-0.15-0.06c-0.21-0.09-0.44-0.17-0.67-0.25c-0.18-0.06-0.37-0.11-0.55-0.15c-0.18-0.06-0.38-0.09-0.57-0.12
				c-0.53-0.09-1.07-0.14-1.62-0.14c-0.17,0-0.34,0-0.5,0.02c-0.26,0.02-0.5,0.05-0.75,0.08c-0.15,0.02-0.31,0.03-0.46,0.08
				c-0.21,0.03-0.43,0.08-0.63,0.14c-0.28,0.06-0.53,0.15-0.81,0.25c-0.29,0.11-0.58,0.23-0.86,0.37c-0.29,0.14-0.57,0.28-0.86,0.42
				c-0.73,0.39-1.45,0.76-2.17,1.14c-0.38,0.22-0.76,0.42-1.15,0.63c-0.28,0.15-0.55,0.31-0.83,0.45
				C43.31,45.28,43.78,51.17,44.4,55.15z"/>
			<path class="st1" d="M89.21,216.15l1.1,5.19l1.31,6.19c-0.12,0.49,6.04,1.61,10.13,2.3c-0.23,0.29-0.63,0.57-1.25,0.8
				c0.63-0.25,1.02-0.52,1.27-0.8c1.93,0.32,3.41,0.54,3.58,0.57c1.15,0.11,1.41,2.21,0.32,2.66c-0.44,0.17-1.02,0.37-1.79,0.52
				c-3.65,0.82-13.08,1.74-14.22,1.76c-1.74,0.03-3.12-1.48-2.96-3.24l-0.05-0.86c2.66,0.19,4.87,0.26,6.72,0.25
				c-1.85,0-4.06-0.06-6.72-0.25l-0.11-2.39c-0.24-0.94-0.47-1.85-0.7-2.78c-0.34-0.68-0.66-1.36-0.98-2.05l-0.02,0.02
				c-0.89-1.82-1.73-3.6-2.55-5.36C84.9,217.89,87.22,217.01,89.21,216.15z"/>
			<path class="st2" d="M49.04,34.55c0,0.4,0.06,0.8,0.18,1.19c0.23,0.68,0.47,1.44,0.72,2.22c0.31,0.97,0.63,1.98,0.92,2.9
				c0.03,0.08,0.06,0.17,0.08,0.25c0.06,0.19,0.12,0.36,0.17,0.52c0.66,2.12,2.18,3.86,4.19,4.77l0.87,0.4
				c2.58,1.16,5.23-1.47,4.13-4.09l-0.6-1.42l-0.34-0.8l-1.38-3.3l-1.71-4.11c-0.9-2.18-3.51-3-5.47-1.74
				C49.68,32.05,49.04,33.27,49.04,34.55z"/>
			<path class="st0" d="M48.76,42.26c4.61,3.57,12.67,10.79,16.56,20.12l2.51,7.52V51.97l-7.15-10.78
				c-0.08-0.05-0.15-0.09-0.23-0.14c-0.12-0.08-0.23-0.14-0.35-0.2c-0.24-0.14-0.49-0.26-0.75-0.36l-1.38-3.3l-8.04,0.77
				c0.31,0.97,0.63,1.98,0.92,2.9c0.03,0.08,0.06,0.17,0.08,0.25C50.2,41.5,49.48,41.87,48.76,42.26z"/>
			<path class="st5" d="M56.51,38.06"/>
			<g>
				<path class="st2" d="M40.19,27.2c-0.81-2.02-0.7-4.88,1.01-5.33c0.5-0.12,1.13-0.03,1.76,0.22c0.32-6.19,3.62-13.56,7.88-14.65
					c5.58-1.44,10.92,0.57,14.19,15.22c1.3,5.81-1.63,12.61-7.03,14.53c-4.05,1.44-9.66-2.3-12.73-6.7
					C43.36,30.26,41.23,29.77,40.19,27.2z"/>
				<g>
					<path class="st0" d="M59.92,26.88c0.03,0,0.05,0,0.08-0.02c0.64-0.22,1.5-0.56,1.47-1.2c-0.03-0.9-1.89-1.44-2.69-1.64
						c-0.17-0.05-0.34,0.06-0.38,0.23s0.06,0.34,0.23,0.39c1.13,0.28,2.2,0.79,2.22,1.05c0,0-0.03,0.25-1.04,0.57
						c-0.17,0.06-0.26,0.23-0.2,0.4C59.64,26.8,59.78,26.88,59.92,26.88z"/>
					<path class="st0" d="M59.9,30.76c0.35-0.06,0.57-0.12,0.58-0.12c0.18-0.06,0.29-0.26,0.24-0.45c-0.06-0.19-0.24-0.31-0.44-0.25
						c-0.17,0.05-4.29,1.22-5.99-2.75C54.22,27,54.01,26.93,53.82,27c-0.18,0.08-0.26,0.29-0.18,0.48
						C55.17,31.11,58.54,30.97,59.9,30.76z"/>
					<path class="st0" d="M52.95,22.9c0.06,0.63,0.58,1.11,1.16,1.05c0.58-0.06,0.98-0.63,0.92-1.27c-0.06-0.63-0.58-1.11-1.16-1.05
						C53.3,21.69,52.89,22.25,52.95,22.9z"/>
					<path class="st0" d="M60.1,21.97c0.06,0.63,0.58,1.11,1.16,1.05s0.98-0.63,0.92-1.27c-0.06-0.63-0.58-1.11-1.16-1.05
						C60.45,20.77,60.04,21.34,60.1,21.97z"/>
					<path class="st0" d="M50.19,20.98c0.14-0.02,0.26-0.09,0.31-0.23c0.83-2.13,2.75-1.51,2.84-1.48c0.18,0.06,0.38-0.05,0.46-0.23
						c0.06-0.19-0.05-0.39-0.23-0.45c-0.92-0.31-2.87-0.29-3.73,1.91c-0.08,0.19,0.02,0.4,0.2,0.46
						C50.09,20.97,50.14,20.98,50.19,20.98z"/>
					<path class="st0" d="M59.6,18.22c0.09,0.08,0.21,0.09,0.32,0.03c1.68-0.9,2.57,0.57,2.61,0.63c0.09,0.14,0.28,0.19,0.41,0.11
						c0.14-0.09,0.18-0.28,0.11-0.42c-0.41-0.69-1.67-1.78-3.41-0.85c-0.15,0.08-0.2,0.26-0.12,0.42
						C59.54,18.16,59.57,18.19,59.6,18.22z"/>
				</g>
			</g>
			<path class="st1" d="M72.22,109.15v0.57c0-0.17-0.02-0.37-0.02-0.57H72.22z"/>
			<path class="st5" d="M89.21,216.15c-1.99,0.86-4.31,1.74-6.94,2.52c-9.15-19.47-15.1-35.76-16.39-52.45
				c-1.22-1.68-2.43-3.64-3.64-5.81c-0.87,2.32-1.82,4.66-2.83,7.01c-0.9,2.3-1.76,4.62-2.57,6.95c-0.79,2.35-1.7,4.66-2.61,6.96
				L40.7,214.28c-2.12-1.22-4.28-2.64-6.42-4.28c3.18-14.87,8.48-35.26,15.1-44.48c-0.21-7.89,0.76-18.77,1.99-28.73
				c-0.75-0.91-1.45-1.84-2.12-2.78c0,0-16.39-15.44-2.18-41.41c0.12-0.25,0.28-0.49,0.41-0.76c0.38-0.68,0.75-1.67,1.07-2.84
				c7.09,1.95,16.42,3.57,22.51,1.11c0.23,3.57,0.49,7.43,0.69,10.82c0.23,3.5,0.4,6.52,0.47,8.21c0,0.2,0.02,0.4,0.02,0.57
				c0.02,0.31,0.02,0.56,0.02,0.71c0.09,6.78-0.6,14.51-2.2,22.87c0.26,1.07,0.53,2.12,0.79,3.17c2.38,9.37,4.68,17.43,4.81,18.28
				l1.33,5.9c0.53,2.42,1.13,4.82,1.79,7.19c0.66,2.39,1.22,4.82,1.73,7.23L89.21,216.15z"/>
			<path class="st4" d="M70.37,80.07l11.89,88.45c0,0-2.02,6.18-11.89,7.72l-2.55-94.92L70.37,80.07z"/>
			<path class="st4" d="M50.09,78.08c-7.62,15.52-16.01,52-24.35,87.14c0,0,12.97,11.5,39.6,11.04l2.48-94.92L50.09,78.08z"/>
			<g>
				<path class="st3" d="M50.51,39.77c0,0,16.5,11.95,17.31,30.12v25.55c0,0.4-0.57,0.45-0.64,0.06
					c-1.36-8.51-4.84-27.36-9.69-33.18c-0.43-0.51-0.29-1.3,0.32-1.56l2.9-1.3c0,0-8.48-11.01-14.44-14.87
					c-1.25-0.82-1.3-2.76-0.02-3.54C47.54,40.33,49.24,40.44,50.51,39.77z"/>
				<path class="st3" d="M58.99,39.62c0,0,0.18-0.19,0.78-0.39c3.01-0.97,6.25,0.62,7.61,3.5c1.27,2.7,2.86,6.7,3.85,11.47
					c0.14,0.68-2.08,4.21-2.08,4.21l1.96,0.19c0.64,0.06,1.12,0.6,1.1,1.25c-0.11,4.28-0.76,19.79-4.37,32.05
					C67.82,91.88,69.22,50.13,58.99,39.62z"/>
			</g>
			<g>
				<path class="st2" d="M77.93,86.17l-0.63,5.25l3.73-0.19c2.93,1.2,5.56,1.56,7.52,1.59c2.52,0.03,4.78-1.81,5.03-4.32v-0.06
					c0.2-2.19-1.39-4.21-3.56-4.45c-0.75-0.09-1.56-0.05-2.35,0.08c-0.08-0.66-0.47-1.16-0.47-1.16c-0.21-0.08-0.44-0.12-0.69-0.12
					c-2.38,0-5.71,3.74-5.71,3.74L77.93,86.17z"/>
				<path class="st4" d="M35.12,91.88c4.02,6.33,41.4,6.04,41.4,6.04l0.78-6.5l0.63-5.25l-34.35-4.29l7.93-26.97
					c0.78-2.75,0.43-5.77-1.22-8.11c-1.36-1.88-3.01-2.72-5-2.39c-2.4,0.4-4.22,2.45-4.74,4.86l-7.14,34.32
					c-0.06,0.28-0.11,0.57-0.14,0.85C32.71,88.9,35.12,91.88,35.12,91.88z"/>
			</g>
			<path class="st1" d="M41.29,12.03c2.77-6.05,9.44-8.32,15.63-6.31c2.69,0.88,7.61,4.68,5.99,8.12c0,0-0.09,0.2-0.12,0.42
				c-0.28,2.15-3.94,4.38-5.21,1.71c-1.34,2.49-4.22,3.98-7.01,3.61c-2.6-0.34-2.98-3.2-2.99-5.06c-0.03,5.25-3.76,11.02,1.68,15.18
				c-3.97-0.6-7.3-5.54-8.53-9.03C39.84,18.11,40.18,14.47,41.29,12.03z"/>
			<path class="st1" d="M53.32,50.05c0.53-1.57-0.9-2.93-2.22-3.38c-1.88-0.65-3.97,0.46-5.74-0.4c-1.28-0.62-2.22-1.67-2.66-3.04
				c-0.61-1.87-0.23-3.37,0.84-4.99c0.66-0.99,1.71-2.44,0.49-3.43l0.6,0.28c-0.67-0.85-0.14-1.48,0.86-1.61
				c0.95-0.11,1.63,0.43,2.15,1.14c0.9,1.24,1.16,2.95,2.81,3.43c0.67,0.2,1.42,0.25,2.08,0.52c0.76,0.31,1.48,1.03,2.05,1.62
				c1.04,1.07,2.06,2.27,2.43,3.75c0.4,1.62,0.28,2.75-0.46,4.23c-0.86,1.71-3.5,5.23-5.78,4.01C51.88,51.97,52.94,51.2,53.32,50.05
				z"/>
			<path class="st3" d="M87.48,84.17c-0.84-0.77-1.08,3.57-1.13,4.06c-0.09,1.37-0.18,2.73-0.28,4.11c-0.14,1.98-3.19,1.99-3.06,0
				c0.15-2.25,0.26-4.51,0.47-6.75c0.15-1.59,0.53-3.06,1.94-3.98c1.38-0.9,3.01-0.71,4.22,0.37C91.1,83.33,88.95,85.5,87.48,84.17
				L87.48,84.17z"/>
		</g>
	</g>
</g>
<g>
	<g>
		<path class="st4" d="M18.09,233.52c1.48-2.66,3.76-4.85,4.81-7.74c0.67-1.85,3.64-1.05,2.95,0.82c-1.18,3.2-3.48,5.56-5.12,8.48
			C19.77,236.81,17.13,235.25,18.09,233.52L18.09,233.52z"/>
		<path class="st4" d="M15.22,231.98c0.14-1.68-0.08-3.33-0.32-4.99c-0.12-0.83,0.21-1.65,1.07-1.9c0.72-0.22,1.76,0.26,1.88,1.08
			c0.29,1.93,0.6,3.86,0.44,5.82C18.11,233.95,15.05,233.97,15.22,231.98L15.22,231.98z"/>
		<path class="st4" d="M11.06,232.01c-1.04-2.78-1.63-6.02-3.28-8.51c-1.1-1.65,1.54-3.2,2.64-1.56c1.8,2.7,2.46,6.24,3.59,9.25
			C14.71,233.04,11.77,233.84,11.06,232.01L11.06,232.01z"/>
		<path class="st4" d="M9.55,236.93c-1.86-1.71-3.7-3.47-5.35-5.4c-1.27-1.5,0.87-3.69,2.15-2.18c1.65,1.93,3.48,3.69,5.35,5.4
			C13.17,236.08,11,238.26,9.55,236.93L9.55,236.93z"/>
	</g>
</g>
</svg>
