<?xml version="1.0" encoding="utf-8"?>
<!-- Generator: Adobe Illustrator 23.0.3, SVG Export Plug-In . SVG Version: 6.00 Build 0)  -->
<svg version="1.1" id="Layer_1" xmlns="http://www.w3.org/2000/svg" xmlns:xlink="http://www.w3.org/1999/xlink" x="0px" y="0px"
	 viewBox="0 0 260 260" style="enable-background:new 0 0 260 260;" xml:space="preserve">
<style type="text/css">
	.st0{fill:#CB825D;}
	.st1{fill:#FFBB28;}
	.st2{fill:#4DBFDD;}
	.st3{fill:#000347;}
</style>
<g>
	<g>
		<path class="st0" d="M213.87,204.15l-23.83,25.06c-1.82,1.88-4.67,2.34-7.01,1.1l-7.08-3.83c-2.86-1.56-3.9-5.19-2.27-8.05
			l17.14-29.54L213.87,204.15z"/>
		<path class="st0" d="M153.81,226.55l-9.61,6.43c-2.27,1.49-5.32,0.91-6.88-1.3l-12.47-17.92l21.62-17.01l9.22,23.89
			C156.54,222.79,155.76,225.25,153.81,226.55z"/>
		<path class="st1" d="M11.7,92.29c0.06,0.71,0.19,1.43,0.32,2.14l-0.45,5.71l0.91,4.28l2.47,12.01
			c1.62,7.92,7.66,14.28,15.45,16.43l36.16,5.45c12.66,1.88,24.02,8.89,31.42,19.35l22.01,30.9c-4.03,10.39-12.27,17.79-22.53,23.76
			c-2.73,1.56-3.51,5.13-1.69,7.73l6.56,9.35c1.69,2.47,5.13,3.05,7.53,1.3l46.94-33.63c16.1-3.12,31.81-2.08,47.13,3.9
			c9.09,14.48,20.32,26.23,33.18,35.9c2.6,1.95,6.23,1.43,8.18-1.1l5.91-7.6c1.75-2.21,1.62-5.32-0.19-7.47l-7.34-8.5
			c-1.69-1.95-2.66-4.41-2.73-7.01c-0.39-15.39-12.47-53.82-12.47-53.82c37.53-18.37,33.63-40.64,6.3-65.05
			c12.72,27.4-13.11,39.54-13.11,39.54c-19.22-2.73-38.5-4.16-57.91-4.16c-18.11-0.06-34.28-11.3-40.51-28.31
			c2.47-24.87-2.66-45.06-16.36-59.99l-7.66,19.93c-1.56,6.23-7.08,10.71-13.57,10.91l-52.65,4.22c-0.06,0-0.19,0-0.26,0
			C19.94,68.73,10.33,79.89,11.7,92.29z"/>
		<polygon class="st2" points="146.22,111.32 136.61,103.2 88.82,157.02 99.41,171.17 		"/>
		<path class="st3" d="M77.2,88.07c-0.91,2.47,0.39,5.19,2.86,6.04c2.47,0.91,5.19-0.39,6.04-2.86c0.91-2.47-0.39-5.19-2.86-6.04
			S78.11,85.61,77.2,88.07z"/>
		<path class="st3" d="M11.7,92.29c23.18,0.84,23.44-13.83,21.03-23.76C19.94,68.73,10.33,79.89,11.7,92.29z"/>
		<path class="st1" d="M11.57,100.21c18.89-16.1,35.38-0.45,45.38,14.22c5.45,7.99,9.22,16.94,11.62,26.29
			c0.58,2.27,1.3,4.41,2.21,5.52c0,0-17.72,2.14-33.56-4.93l0,0C6.18,129.43,11.57,100.21,11.57,100.21z"/>
	</g>
</g>
</svg>
