<?xml version="1.0" encoding="utf-8"?>
<!-- Generator: Adobe Illustrator 23.0.3, SVG Export Plug-In . SVG Version: 6.00 Build 0)  -->
<svg version="1.1" id="Layer_1" xmlns="http://www.w3.org/2000/svg" xmlns:xlink="http://www.w3.org/1999/xlink" x="0px" y="0px"
	 viewBox="0 0 250 250" style="enable-background:new 0 0 250 250;" xml:space="preserve">
<style type="text/css">
	.st0{fill:#4E4E4E;}
	.st1{fill:#FF6120;}
	.st2{fill:#4F4F4F;}
	.st3{fill:#5D5D5D;}
	.st4{fill:#585858;}
	.st5{fill:#565656;}
	.st6{fill:#545454;}
	.st7{fill:#555555;}
	.st8{fill:#FEFEFE;}
	.st9{fill:#515151;stroke:#000000;stroke-width:0.25;stroke-miterlimit:10;}
	.st10{stroke:#000000;stroke-width:0.25;stroke-miterlimit:10;}
</style>
<g id="SDTRj5_1_">
	<g>
		<path class="st0" d="M26.4,43.42c-3.18-3.92-7.28-20.55-8.23-25.58C15.57,3.98,24.34,5.74,40.73,6.55
			c7.76,0.38,18.26,4.26,24.6,8.44c10.7,7.06,20.39,15.13,26.86,26.29c2.15,3.71,4.42,4.26,8.36,2.64
			c17.47-7.15,35.2-7.68,53.15-1.88c5.14,1.66,5.03,1.59,7.72-3.13c8.1-14.21,19.36-25.48,34.42-32.85
			c7.61-3.73,15.74-4.78,24.05-2.14c10.02,3.18,14.8,11.74,12.33,21.66c-1.1,4.39-2.98,8.46-5.56,12.13
			c-4.75,6.75-6.67,14.21-6.88,22.21c-0.02,0.78-0.02,1.58-0.13,2.35c-0.31,2.02,0.24,5.19-1.35,5.73
			c-2.06,0.71-4.45-1.37-6.53-2.51c-2.35-1.29-0.41-3.6-0.65-4.4c-0.41-10.98,2.33-20.1,8.25-28.35c1.77-2.47,3.2-5.17,4.08-8.08
			c2-6.59-0.88-11.43-7.8-13.02c-7.06-1.62-13.5,0.4-19.42,3.8c-10.82,6.21-19.12,14.98-25.57,25.31c-2.53,4.05-5.44,7.8-8.1,11.73
			c-1.3,1.92-2.42,1.78-4.27,0.87c-13.03-6.39-26.77-8.04-41.08-5.45c-6.84,1.24-13.33,3.5-19.3,6.97c-1.8,1.05-3.03,1.1-4.61-0.32
			c-3.87-3.49-7.45-7.09-10.36-11.47c-7.34-11.06-17.65-19.06-29.8-24.76c-5.19-2.44-10.82-3.25-16.63-1.79
			c-7.17,1.81-9.99,6.9-7.72,13.73c3.9,11.73,2.88,7.36,3.9,11.73c3.1,13.32,10.35,17.73,11.95,27.35c0.19,1.17-5.13,4.64-6.95,4.45
			c-2.04-0.21-1.55-2.11-1.82-3.32"/>
		<g>
			<path class="st1" d="M85.47,79.92c8.4-0.85,16.76-0.13,25.14,0.22c13.34,0.56,26.01-2.55,38.48-6.92
				c16.17-5.66,32.91-7.54,50-6.29c3.38,0.25,6.72,0.91,9.77,2.4c4.98,2.45,6.63,6.62,3.92,11.38c-2.78,4.89-3.69,10.02-3.99,15.42
				c-0.47,8.21-3.51,15.54-8.62,22.11c-3.73,4.8-9.12,6.96-14.77,8.53c-10.76,2.99-21.47,3.3-31.54-2.05
				c-8.16-4.34-12.71-11.85-16.91-19.51c-1.39-2.53-2.5-5.21-3.88-7.75c-1.01-1.85-2.72-3.07-4.94-2.82
				c-2.01,0.22-3.3,1.61-4.12,3.43c-2.8,6.18-3.45,12.91-5.52,19.29c-4.33,13.37-14.07,20.1-27.79,22.12
				c-9.68,1.42-19.2,1.46-27.64-4.52c-6.14-4.35-10.06-10.13-12.34-17.02c-1.59-4.8-3.91-8.99-7.63-12.68
				c-6.39-6.32-4.81-12.87,3.8-16.3C59.25,84.02,72.17,81.14,85.47,79.92z"/>
		</g>
		<path class="st2" d="M130.81,155.31c5.85,8.48,13.71,13.59,23.72,15.67c14.01,2.91,27.44-3.68,31.38-15.41
			c1.01-3.01,0.9-6.13,1.08-9.54c5.4,10.2-0.27,24.23-11.8,29.97c-13.36,6.65-30.9,2.94-41.73-8.85c-0.89-0.97-1.74-1.96-2.81-3.18
			c-5.61,8.37-13.08,14.01-22.98,16.43c-14.07,3.43-27.64-1.87-33.31-13.14c-3.21-6.39-3.49-12.95-0.64-20.16
			c1.76,16.61,11.57,26.24,26.3,25.6c10.84-0.47,20.24-4.49,27.27-12.84C128.41,158.55,129.4,157.14,130.81,155.31z"/>
		<path class="st2" d="M132.5,125.05c3.92,0,7.86-0.19,11.77,0.06c3.4,0.21,6.39,1.59,7.6,4.97c1.16,3.22-0.3,5.86-2.56,8.17
			c-4.42,4.53-9.62,7.98-15.54,10.45c-1.9,0.79-3.64,0.65-5.47-0.13c-5.76-2.48-10.83-5.87-15.18-10.28
			c-2.22-2.25-3.36-4.84-2.4-7.86c0.99-3.12,3.73-4.2,6.8-4.81C122.49,124.64,127.51,124.98,132.5,125.05z"/>
		<path class="st3" d="M164.31,141.46c1.85-0.01,2.79,0.88,3.03,2.27c0.25,1.52-0.69,2.52-2.2,2.71c-1.74,0.23-2.86-0.71-2.99-2.37
			C162.02,142.55,163.13,141.81,164.31,141.46z"/>
		<path class="st4" d="M99.83,160.05c-1.56-0.11-2.55-0.99-2.65-2.41c-0.09-1.42,0.75-2.58,2.3-2.68c1.71-0.11,2.86,0.95,2.9,2.55
			C102.44,158.97,101.31,159.78,99.83,160.05z"/>
		<path class="st5" d="M97.86,143.51c1.72,0.05,2.81,0.78,2.88,2.31c0.08,1.53-1,2.46-2.48,2.6c-1.61,0.15-2.54-0.87-2.66-2.34
			C95.48,144.54,96.46,143.72,97.86,143.51z"/>
		<path class="st6" d="M176.48,151.75c-1.65-0.13-2.54-0.98-2.51-2.5c0.03-1.51,0.95-2.44,2.54-2.39c1.54,0.05,2.51,0.93,2.49,2.46
			C178.97,150.86,177.96,151.6,176.48,151.75z"/>
		<path class="st6" d="M89.2,151.64c0.73,0.06,1.69,0.99,1.65,2.42c-0.04,1.43-1.08,2.36-2.66,2.36c-1.65-0.01-2.5-1.07-2.47-2.5
			C85.76,152.48,86.66,151.53,89.2,151.64z"/>
		<path class="st7" d="M166.31,158.04c-1.53-0.06-2.48-1.01-2.51-2.43c-0.03-1.43,0.89-2.46,2.51-2.48c1.61-0.02,2.55,0.93,2.58,2.4
			C168.93,157.03,168.02,157.94,166.31,158.04z"/>
		<g>
			<path class="st8" d="M86.24,133.93c-15.14,3.07-25.06-6.65-30.76-20.61c-1.76-4.31-2.47-8.72-1.4-13.42
				c0.87-3.84,3.05-6.41,6.73-7.76c12.17-4.46,24.66-7.13,37.72-6.26c14.59,0.97,18.55,8.24,16.54,20.71
				C112.57,122.11,102.6,131.26,86.24,133.93z"/>
		</g>
		<g>
			<path class="st8" d="M201.41,90.14c0.2,3.55,0.22,6.25-0.11,9.01c-2.1,17.53-13.56,24.33-32.26,23.09
				c-14.73-0.98-24.62-10.29-28.23-24.19c-1.36-5.24,0.03-9.77,4.66-13.24c7.57-5.68,16.72-7.13,25.63-9.3
				c4.9-1.19,9.88-1.24,14.87-1.4c8.22-0.26,13.29,3.62,14.81,11.4C201.13,87.3,201.27,89.13,201.41,90.14z"/>
		</g>
		<path class="st2" d="M91.85,109.31c-4.68-0.14-8.41-4.16-7.95-8.56c0.48-4.5,4.88-7.87,9.36-7.18c1.61,0.25,2.69,0.52,1.89,2.67
			c-0.88,2.36,0.29,4.27,3.02,4.27c2.44,0.01,2.2,1.26,1.95,2.72C99.51,106.73,95.81,109.43,91.85,109.31z"/>
		<path class="st2" d="M164.84,106.33c-4.55-0.02-7.95-3.26-8.03-7.66c-0.08-4.43,3.59-8.2,8.05-8.18c1.89,0.01,3.3,0.19,2.57,2.88
			c-0.67,2.45,1.06,4.19,3.67,3.81c2.78-0.4,2.21,1.15,2.01,2.49C172.54,103.61,169.08,106.35,164.84,106.33z"/>
		<g>
			<path class="st9" d="M59.31,202.52v10.35h7.63c0.62,0,1.12,0.5,1.12,1.12v1.3c0,0.62-0.5,1.12-1.12,1.12h-7.64v13.35
				c0,0.65-0.52,1.17-1.17,1.17h-1.65c-0.7,0-1.26-0.57-1.26-1.26v-29.63c0-0.68,0.55-1.24,1.24-1.24h11.22
				c0.59,0,1.06,0.48,1.06,1.06v1.49c0,0.64-0.52,1.17-1.17,1.17H59.31z"/>
			<path class="st9" d="M80.73,230.07v-29.65c0-0.89,0.72-1.61,1.61-1.61h11.05c0.48,0,0.86,0.39,0.86,0.86v1.9
				c0,0.48-0.39,0.86-0.86,0.86h-7.85c-0.48,0-0.86,0.39-0.86,0.86v8.39c0,0.48,0.39,0.86,0.86,0.86h7.21
				c0.48,0,0.86,0.39,0.86,0.86v1.68c0,0.48-0.39,0.86-0.86,0.86h-7.21c-0.48,0-0.86,0.39-0.86,0.86v9.57
				c0,0.48,0.39,0.86,0.86,0.86h8.3c0.48,0,0.86,0.39,0.86,0.86v1.95c0,0.48-0.39,0.86-0.86,0.86H81.59
				C81.12,230.93,80.73,230.54,80.73,230.07z"/>
			<path class="st9" d="M113.86,202.3v27.79c0,0.47-0.38,0.85-0.85,0.85h-2.48c-0.42,0-0.76-0.34-0.76-0.76V202.3h-5.22
				c-0.5,0-0.9-0.4-0.9-0.9v-1.65c0-0.52,0.42-0.94,0.94-0.94h14.64c0.42,0,0.76,0.34,0.76,0.76v1.87c0,0.48-0.39,0.86-0.86,0.86
				H113.86z"/>
			<path class="st9" d="M144.67,230.55c-1.27,0.77-2.81,1.16-4.63,1.16c-1.79,0-3.39-0.42-4.81-1.27c-1.42-0.85-2.62-2.03-3.59-3.54
				c-0.97-1.51-1.71-3.29-2.22-5.33c-0.51-2.04-0.77-4.27-0.77-6.69c0-2.42,0.26-4.66,0.79-6.72c0.53-2.06,1.29-3.83,2.27-5.33
				c0.98-1.5,2.18-2.67,3.59-3.52s2.99-1.27,4.74-1.27c1.63,0,3.13,0.32,4.49,0.95c0.5,0.23,0.97,0.51,1.4,0.84
				c1.22,0.91,1.37,2.7,0.34,3.83h0c-0.47,0.51-1.26,0.5-1.74,0.01c-0.46-0.48-0.96-0.86-1.5-1.15c-0.88-0.47-1.81-0.7-2.81-0.7
				c-1.24,0-2.31,0.35-3.22,1.04c-0.91,0.7-1.66,1.63-2.25,2.81s-1.04,2.56-1.34,4.15c-0.3,1.59-0.45,3.28-0.45,5.06
				s0.15,3.46,0.45,5.04c0.3,1.57,0.76,2.96,1.36,4.15c0.61,1.2,1.37,2.14,2.29,2.84c0.92,0.7,2,1.04,3.24,1.04
				c1.12,0,2.11-0.3,2.97-0.91c0.49-0.34,0.92-0.73,1.29-1.15c0.46-0.53,1.28-0.52,1.75,0l0.82,0.89c0.38,0.42,0.44,1.07,0.09,1.52
				C146.52,229.19,145.66,229.94,144.67,230.55z"/>
			<path class="st9" d="M174.53,229.96v-12.89c0-0.54-0.44-0.98-0.98-0.98h-9.26c-0.54,0-0.98,0.44-0.98,0.98v12.89
				c0,0.54-0.44,0.98-0.98,0.98h-2.13c-0.54,0-0.98-0.44-0.98-0.98v-30.18c0-0.54,0.44-0.98,0.98-0.98h2.13
				c0.54,0,0.98,0.44,0.98,0.98v11.71c0,0.54,0.44,0.98,0.98,0.98h9.26c0.54,0,0.98-0.44,0.98-0.98v-11.71
				c0-0.54,0.44-0.98,0.98-0.98h2.13c0.54,0,0.98,0.44,0.98,0.98v30.18c0,0.54-0.44,0.98-0.98,0.98h-2.13
				C174.97,230.93,174.53,230.49,174.53,229.96z"/>
			<path class="st9" d="M205.76,230.37l-5.02-13.22c-0.13-0.34-0.45-0.56-0.81-0.56h-2.26c-0.48,0-0.87,0.39-0.87,0.87v12.6
				c0,0.48-0.39,0.87-0.87,0.87h-2.26c-0.48,0-0.87-0.39-0.87-0.87v-30.39c0-0.48,0.39-0.87,0.87-0.87h7.46
				c1.18,0,2.3,0.16,3.34,0.48c1.05,0.32,1.96,0.83,2.75,1.52c0.79,0.7,1.41,1.6,1.87,2.72c0.46,1.12,0.68,2.46,0.68,4.04
				c0,1.3-0.17,2.44-0.51,3.4c-0.34,0.97-0.77,1.79-1.31,2.47c-0.54,0.68-1.12,1.22-1.76,1.61c-0.64,0.39-1.26,0.65-1.87,0.77
				l5.56,13.92c0.23,0.57-0.19,1.19-0.81,1.19h-2.52C206.21,230.93,205.89,230.71,205.76,230.37z M205.7,207.72
				c0-1.09-0.15-1.99-0.45-2.69c-0.3-0.7-0.7-1.26-1.18-1.69c-0.48-0.43-1.04-0.72-1.68-0.89s-1.27-0.25-1.91-0.25h-2.81
				c-0.48,0-0.87,0.39-0.87,0.87v9.47c0,0.48,0.39,0.87,0.87,0.87h2.9c1.54,0,2.78-0.49,3.72-1.48
				C205.24,210.95,205.7,209.54,205.7,207.72z"/>
		</g>
	</g>
</g>
<g>
	<path class="st10" d="M37.43,238.08v5.01h-0.91v-5.01h-1.36v-0.61h3.64v0.61H37.43z"/>
	<path d="M41.14,243.09h-0.87v-6.01h0.87v2.69h0.02c0.09-0.22,0.24-0.41,0.45-0.57c0.22-0.16,0.48-0.24,0.8-0.24
		c0.27,0,0.49,0.05,0.66,0.14c0.17,0.09,0.3,0.21,0.39,0.36c0.09,0.15,0.15,0.32,0.19,0.51c0.03,0.19,0.05,0.38,0.05,0.58v2.54
		h-0.87v-2.55c0-0.11-0.01-0.23-0.02-0.34c-0.01-0.12-0.05-0.22-0.1-0.32c-0.05-0.1-0.12-0.17-0.22-0.23
		c-0.09-0.06-0.22-0.09-0.38-0.09c-0.14,0-0.27,0.03-0.39,0.09c-0.12,0.06-0.23,0.15-0.31,0.25c-0.09,0.11-0.15,0.24-0.2,0.39
		c-0.05,0.15-0.07,0.32-0.07,0.5V243.09z"/>
	<path d="M46.54,241.27c0,0.19,0.02,0.37,0.07,0.54c0.04,0.17,0.11,0.31,0.19,0.43c0.08,0.12,0.19,0.22,0.32,0.29
		c0.13,0.07,0.28,0.1,0.44,0.1c0.23,0,0.41-0.06,0.55-0.17s0.24-0.24,0.32-0.4l0.65,0.29c-0.13,0.25-0.33,0.46-0.58,0.62
		c-0.25,0.16-0.57,0.24-0.96,0.24c-0.58,0-1.03-0.19-1.36-0.56c-0.33-0.37-0.49-0.89-0.49-1.56c0-0.32,0.04-0.61,0.13-0.87
		c0.09-0.26,0.21-0.49,0.37-0.68c0.16-0.19,0.36-0.33,0.59-0.44c0.23-0.1,0.48-0.16,0.76-0.16c0.31,0,0.57,0.05,0.79,0.16
		s0.39,0.24,0.53,0.42c0.14,0.18,0.24,0.39,0.3,0.63c0.06,0.24,0.09,0.5,0.09,0.77v0.33H46.54z M48.35,240.73
		c0-0.35-0.07-0.63-0.21-0.84c-0.14-0.21-0.36-0.32-0.65-0.32c-0.18,0-0.32,0.04-0.44,0.12c-0.12,0.08-0.21,0.18-0.29,0.3
		c-0.07,0.12-0.13,0.24-0.16,0.38c-0.03,0.13-0.05,0.25-0.05,0.36H48.35z"/>
	<path d="M55.93,239.86c-0.09-0.1-0.2-0.18-0.34-0.25c-0.14-0.07-0.3-0.1-0.49-0.1c-0.2,0-0.36,0.05-0.48,0.16
		c-0.13,0.11-0.19,0.26-0.19,0.44s0.07,0.32,0.2,0.4c0.13,0.09,0.33,0.17,0.6,0.25c0.14,0.04,0.28,0.09,0.42,0.15
		c0.14,0.06,0.26,0.14,0.37,0.23c0.11,0.1,0.2,0.21,0.27,0.34c0.07,0.13,0.1,0.28,0.1,0.46c0,0.21-0.04,0.39-0.12,0.55
		c-0.08,0.16-0.19,0.29-0.32,0.4c-0.14,0.11-0.3,0.19-0.49,0.24c-0.19,0.06-0.39,0.08-0.62,0.08c-0.3,0-0.58-0.05-0.83-0.15
		c-0.25-0.1-0.46-0.23-0.63-0.39l0.51-0.44c0.11,0.11,0.25,0.21,0.4,0.29c0.15,0.08,0.35,0.12,0.58,0.12c0.22,0,0.39-0.06,0.51-0.18
		c0.12-0.12,0.19-0.28,0.19-0.48c0-0.11-0.02-0.21-0.07-0.29c-0.05-0.08-0.11-0.15-0.19-0.2c-0.08-0.06-0.18-0.1-0.29-0.14
		c-0.11-0.04-0.23-0.08-0.36-0.11c-0.13-0.04-0.25-0.08-0.38-0.14c-0.12-0.05-0.24-0.12-0.34-0.21s-0.18-0.19-0.24-0.32
		c-0.06-0.12-0.09-0.28-0.09-0.46c0-0.18,0.04-0.33,0.12-0.48c0.08-0.14,0.18-0.27,0.32-0.37c0.13-0.1,0.29-0.18,0.47-0.24
		c0.18-0.06,0.38-0.08,0.59-0.08c0.3,0,0.56,0.04,0.78,0.12c0.22,0.08,0.4,0.19,0.54,0.32L55.93,239.86z"/>
	<path d="M59.6,239.21c0.21-0.16,0.49-0.24,0.82-0.24c0.18,0,0.34,0.02,0.47,0.07c0.13,0.05,0.24,0.11,0.33,0.19
		c0.09,0.08,0.16,0.16,0.22,0.26c0.05,0.1,0.1,0.2,0.13,0.31h0.02c0.05-0.09,0.11-0.19,0.18-0.29c0.07-0.1,0.17-0.19,0.28-0.27
		c0.11-0.08,0.24-0.14,0.38-0.19s0.31-0.08,0.49-0.08c0.27,0,0.49,0.05,0.66,0.14c0.17,0.09,0.3,0.21,0.39,0.36
		c0.09,0.15,0.15,0.32,0.19,0.51c0.03,0.19,0.05,0.38,0.05,0.58v2.54h-0.87v-2.55c0-0.11-0.01-0.23-0.02-0.34
		c-0.01-0.12-0.05-0.22-0.1-0.32c-0.05-0.1-0.12-0.17-0.22-0.23c-0.09-0.06-0.22-0.09-0.38-0.09c-0.14,0-0.27,0.03-0.39,0.09
		c-0.12,0.06-0.22,0.15-0.3,0.25c-0.08,0.11-0.15,0.24-0.2,0.39c-0.05,0.15-0.07,0.32-0.07,0.5v2.29h-0.85v-2.55
		c0-0.11-0.01-0.23-0.02-0.34c-0.01-0.12-0.05-0.22-0.1-0.32c-0.05-0.1-0.12-0.17-0.22-0.23c-0.09-0.06-0.22-0.09-0.38-0.09
		c-0.14,0-0.27,0.03-0.39,0.09c-0.12,0.06-0.22,0.15-0.3,0.25c-0.08,0.11-0.15,0.24-0.19,0.39s-0.07,0.32-0.07,0.5v2.29h-0.85v-2.98
		c0-0.16,0-0.33-0.01-0.51c-0.01-0.18-0.02-0.35-0.03-0.5h0.82c0.02,0.13,0.04,0.26,0.05,0.4c0.01,0.13,0.02,0.23,0.02,0.29h0.02
		C59.25,239.56,59.39,239.37,59.6,239.21z"/>
	<path d="M68.65,243.09c-0.03-0.12-0.05-0.24-0.06-0.37c-0.01-0.12-0.02-0.22-0.02-0.29h-0.02c-0.07,0.24-0.21,0.43-0.4,0.56
		c-0.19,0.13-0.46,0.2-0.79,0.2c-0.14,0-0.29-0.02-0.43-0.06c-0.15-0.04-0.28-0.11-0.4-0.21c-0.12-0.1-0.22-0.22-0.29-0.37
		c-0.08-0.15-0.12-0.33-0.12-0.55c0-0.29,0.07-0.52,0.2-0.7c0.13-0.18,0.3-0.33,0.49-0.43s0.42-0.17,0.66-0.21
		c0.24-0.04,0.47-0.06,0.7-0.06h0.33v-0.17c0-0.31-0.08-0.54-0.23-0.68c-0.15-0.14-0.36-0.21-0.61-0.21c-0.19,0-0.36,0.04-0.53,0.11
		c-0.16,0.07-0.3,0.17-0.41,0.29l-0.43-0.42c0.17-0.18,0.39-0.32,0.66-0.42c0.27-0.1,0.54-0.15,0.8-0.15c0.29,0,0.53,0.04,0.73,0.11
		c0.2,0.07,0.36,0.18,0.48,0.33c0.12,0.14,0.21,0.32,0.26,0.53c0.05,0.21,0.08,0.45,0.08,0.71v1.61c0,0.14,0.01,0.29,0.02,0.45
		c0.01,0.16,0.03,0.29,0.05,0.39H68.65z M68.52,241.13h-0.37c-0.16,0-0.3,0.01-0.45,0.03c-0.14,0.02-0.27,0.06-0.39,0.12
		c-0.11,0.06-0.21,0.14-0.28,0.25c-0.07,0.11-0.11,0.24-0.11,0.4c0,0.24,0.07,0.42,0.2,0.54c0.13,0.11,0.29,0.17,0.46,0.17
		s0.32-0.04,0.44-0.12c0.12-0.08,0.21-0.19,0.29-0.31c0.07-0.13,0.13-0.27,0.16-0.42c0.03-0.15,0.05-0.3,0.05-0.43V241.13z"/>
	<path d="M72.77,239.2c0.2-0.15,0.42-0.23,0.68-0.23c0.05,0,0.09,0,0.12,0.01l-0.04,0.71c-0.03-0.01-0.05-0.01-0.08-0.01
		c-0.03,0-0.06,0-0.09,0c-0.16,0-0.3,0.04-0.43,0.12c-0.12,0.08-0.23,0.19-0.31,0.32c-0.08,0.13-0.15,0.28-0.19,0.45
		c-0.04,0.17-0.07,0.34-0.07,0.51v2.02h-0.87v-2.98c0-0.16,0-0.33-0.01-0.51c-0.01-0.18-0.02-0.35-0.03-0.5h0.82
		c0.02,0.13,0.04,0.27,0.05,0.41c0.01,0.14,0.02,0.28,0.02,0.41h0.02C72.43,239.6,72.58,239.35,72.77,239.2z"/>
	<path d="M76.67,243.16c-0.12,0.02-0.24,0.03-0.36,0.03c-0.39,0-0.67-0.1-0.83-0.29c-0.17-0.2-0.25-0.47-0.25-0.82v-2.43h-0.65
		v-0.55h0.64v-1.07h0.84v1.07h0.9v0.55h-0.9v2.29c0,0.23,0.04,0.4,0.13,0.5c0.09,0.1,0.22,0.15,0.39,0.15
		c0.06,0,0.12-0.01,0.19-0.02c0.07-0.01,0.12-0.02,0.17-0.04l0.02,0.54C76.89,243.12,76.79,243.14,76.67,243.16z"/>
	<path d="M79.22,241.27c0,0.19,0.02,0.37,0.07,0.54c0.04,0.17,0.11,0.31,0.19,0.43c0.08,0.12,0.19,0.22,0.32,0.29
		c0.13,0.07,0.28,0.1,0.44,0.1c0.23,0,0.41-0.06,0.55-0.17c0.13-0.11,0.24-0.24,0.32-0.4l0.65,0.29c-0.13,0.25-0.33,0.46-0.58,0.62
		c-0.25,0.16-0.57,0.24-0.96,0.24c-0.58,0-1.03-0.19-1.36-0.56c-0.33-0.37-0.49-0.89-0.49-1.56c0-0.32,0.04-0.61,0.13-0.87
		c0.09-0.26,0.21-0.49,0.37-0.68c0.16-0.19,0.36-0.33,0.59-0.44s0.48-0.16,0.76-0.16c0.31,0,0.57,0.05,0.79,0.16
		c0.22,0.1,0.39,0.24,0.53,0.42c0.14,0.18,0.24,0.39,0.3,0.63c0.06,0.24,0.09,0.5,0.09,0.77v0.33H79.22z M81.04,240.73
		c0-0.35-0.07-0.63-0.21-0.84c-0.14-0.21-0.36-0.32-0.65-0.32c-0.18,0-0.32,0.04-0.44,0.12c-0.12,0.08-0.21,0.18-0.29,0.3
		c-0.07,0.12-0.13,0.24-0.16,0.38c-0.03,0.13-0.05,0.25-0.05,0.36H81.04z"/>
	<path d="M85.18,239.2c0.2-0.15,0.42-0.23,0.68-0.23c0.05,0,0.09,0,0.12,0.01l-0.04,0.71c-0.03-0.01-0.05-0.01-0.08-0.01
		c-0.03,0-0.06,0-0.09,0c-0.16,0-0.3,0.04-0.43,0.12c-0.12,0.08-0.23,0.19-0.31,0.32c-0.08,0.13-0.15,0.28-0.19,0.45
		c-0.04,0.17-0.07,0.34-0.07,0.51v2.02h-0.87v-2.98c0-0.16,0-0.33-0.01-0.51c-0.01-0.18-0.02-0.35-0.03-0.5h0.82
		c0.02,0.13,0.04,0.27,0.05,0.41c0.01,0.14,0.02,0.28,0.02,0.41h0.02C84.84,239.6,84.98,239.35,85.18,239.2z"/>
	<path d="M94.33,243.09h-0.99l-0.78-3.02h-0.01l-0.79,3.02H90.8l-1.05-3.99h0.88l0.71,3.21h0.02l0.82-3.21h0.8l0.84,3.21h0.01
		l0.72-3.21h0.87L94.33,243.09z"/>
	<path d="M99.34,243.09c-0.03-0.12-0.05-0.24-0.06-0.37c-0.01-0.12-0.02-0.22-0.02-0.29h-0.02c-0.07,0.24-0.21,0.43-0.4,0.56
		c-0.19,0.13-0.46,0.2-0.79,0.2c-0.14,0-0.29-0.02-0.44-0.06c-0.15-0.04-0.28-0.11-0.4-0.21c-0.12-0.1-0.22-0.22-0.29-0.37
		c-0.08-0.15-0.12-0.33-0.12-0.55c0-0.29,0.07-0.52,0.2-0.7c0.13-0.18,0.3-0.33,0.5-0.43c0.2-0.1,0.42-0.17,0.66-0.21
		c0.24-0.04,0.48-0.06,0.7-0.06h0.33v-0.17c0-0.31-0.08-0.54-0.23-0.68c-0.15-0.14-0.36-0.21-0.61-0.21c-0.19,0-0.36,0.04-0.53,0.11
		c-0.16,0.07-0.3,0.17-0.41,0.29l-0.44-0.42c0.17-0.18,0.39-0.32,0.66-0.42s0.54-0.15,0.8-0.15c0.29,0,0.53,0.04,0.73,0.11
		c0.2,0.07,0.36,0.18,0.48,0.33c0.12,0.14,0.21,0.32,0.26,0.53c0.05,0.21,0.07,0.45,0.07,0.71v1.61c0,0.14,0.01,0.29,0.02,0.45
		c0.01,0.16,0.03,0.29,0.05,0.39H99.34z M99.21,241.13h-0.37c-0.15,0-0.3,0.01-0.45,0.03c-0.15,0.02-0.28,0.06-0.39,0.12
		c-0.11,0.06-0.21,0.14-0.28,0.25c-0.07,0.11-0.11,0.24-0.11,0.4c0,0.24,0.07,0.42,0.2,0.54c0.14,0.11,0.29,0.17,0.46,0.17
		c0.18,0,0.32-0.04,0.44-0.12c0.12-0.08,0.21-0.19,0.29-0.31c0.07-0.13,0.13-0.27,0.16-0.42c0.03-0.15,0.05-0.3,0.05-0.43V241.13z"
		/>
	<path d="M103.72,243.82c-0.06,0.18-0.13,0.34-0.21,0.49c-0.08,0.15-0.17,0.27-0.28,0.37c-0.11,0.1-0.24,0.18-0.4,0.24
		c-0.15,0.06-0.34,0.08-0.55,0.08c-0.11,0-0.22-0.01-0.33-0.02c-0.11-0.01-0.2-0.03-0.26-0.04l0.11-0.61
		c0.13,0.04,0.26,0.06,0.4,0.06c0.2,0,0.34-0.05,0.44-0.14c0.1-0.1,0.17-0.23,0.23-0.4l0.19-0.63l-1.5-4.11h0.91l1,3.19h0.02
		l0.91-3.19h0.88L103.72,243.82z"/>
	<path d="M111.21,243.16c-0.12,0.02-0.24,0.03-0.36,0.03c-0.39,0-0.67-0.1-0.83-0.29c-0.16-0.2-0.25-0.47-0.25-0.82v-2.43h-0.65
		v-0.55h0.64v-1.07h0.84v1.07h0.9v0.55h-0.9v2.29c0,0.23,0.04,0.4,0.13,0.5s0.22,0.15,0.39,0.15c0.06,0,0.13-0.01,0.19-0.02
		c0.07-0.01,0.12-0.02,0.17-0.04l0.02,0.54C111.43,243.12,111.33,243.14,111.21,243.16z"/>
	<path d="M116.58,241.11c0,0.32-0.04,0.61-0.13,0.87c-0.08,0.26-0.21,0.48-0.36,0.67c-0.16,0.19-0.35,0.33-0.58,0.43
		c-0.23,0.1-0.49,0.16-0.78,0.16c-0.28,0-0.54-0.05-0.77-0.16c-0.23-0.1-0.42-0.25-0.58-0.43c-0.16-0.19-0.28-0.41-0.36-0.67
		c-0.08-0.26-0.13-0.55-0.13-0.87s0.04-0.61,0.13-0.87c0.08-0.27,0.2-0.49,0.36-0.68c0.15-0.19,0.35-0.33,0.58-0.43
		c0.23-0.1,0.49-0.16,0.78-0.16c0.29,0,0.55,0.05,0.78,0.16s0.42,0.25,0.58,0.43c0.16,0.19,0.28,0.41,0.36,0.68
		C116.53,240.5,116.58,240.79,116.58,241.11z M115.69,241.1c0-0.22-0.02-0.42-0.06-0.61c-0.04-0.19-0.1-0.35-0.18-0.49
		c-0.08-0.14-0.18-0.25-0.3-0.32c-0.12-0.08-0.26-0.12-0.43-0.12c-0.16,0-0.3,0.04-0.42,0.12c-0.12,0.08-0.22,0.19-0.3,0.32
		c-0.08,0.14-0.13,0.3-0.17,0.49c-0.04,0.19-0.06,0.39-0.06,0.61c0,0.22,0.02,0.42,0.06,0.6c0.04,0.19,0.09,0.35,0.17,0.48
		c0.08,0.14,0.18,0.25,0.3,0.33c0.12,0.08,0.26,0.12,0.42,0.12c0.17,0,0.31-0.04,0.44-0.12c0.12-0.08,0.22-0.19,0.3-0.33
		c0.08-0.14,0.13-0.3,0.17-0.48C115.67,241.52,115.69,241.32,115.69,241.1z"/>
	<path d="M123.17,237.56c-0.09-0.03-0.19-0.04-0.29-0.04c-0.14,0-0.25,0.02-0.33,0.08c-0.09,0.05-0.16,0.11-0.21,0.19
		c-0.05,0.08-0.09,0.17-0.11,0.27c-0.02,0.1-0.03,0.21-0.03,0.32v0.72h0.83v0.55h-0.82v3.44h-0.85v-3.44h-0.66v-0.55h0.66v-0.73
		c0-0.21,0.03-0.4,0.08-0.57c0.05-0.17,0.14-0.33,0.25-0.45c0.11-0.13,0.26-0.23,0.44-0.3c0.18-0.07,0.39-0.11,0.64-0.11
		c0.07,0,0.15,0,0.23,0.01c0.08,0.01,0.15,0.02,0.22,0.04L123.17,237.56z M124.8,237.92c0,0.13-0.05,0.24-0.16,0.33
		c-0.1,0.08-0.23,0.13-0.38,0.13c-0.15,0-0.28-0.04-0.38-0.13c-0.1-0.09-0.15-0.19-0.15-0.33c0-0.13,0.05-0.23,0.15-0.32
		c0.1-0.09,0.23-0.13,0.38-0.13s0.28,0.04,0.38,0.13S124.8,237.79,124.8,237.92z M123.83,243.09v-3.99h0.86v3.99H123.83z"/>
	<path d="M129.56,243.09v-2.55c0-0.11-0.01-0.23-0.02-0.34c-0.01-0.12-0.05-0.22-0.1-0.32c-0.05-0.1-0.12-0.17-0.22-0.23
		c-0.09-0.06-0.22-0.09-0.38-0.09c-0.14,0-0.27,0.03-0.39,0.09c-0.12,0.06-0.22,0.15-0.31,0.25c-0.09,0.11-0.15,0.24-0.2,0.39
		s-0.07,0.32-0.07,0.5v2.29H127v-2.98c0-0.16,0-0.33-0.01-0.51c-0.01-0.18-0.02-0.35-0.03-0.5h0.82c0.02,0.13,0.04,0.26,0.05,0.4
		c0.01,0.13,0.01,0.23,0.01,0.29h0.02c0.09-0.23,0.25-0.43,0.47-0.59c0.22-0.16,0.49-0.24,0.8-0.24c0.27,0,0.49,0.05,0.66,0.14
		c0.17,0.09,0.3,0.21,0.39,0.36c0.09,0.15,0.15,0.32,0.19,0.51c0.03,0.19,0.05,0.38,0.05,0.58v2.54H129.56z"/>
	<path d="M135.2,243.09v-0.63h-0.02c-0.08,0.22-0.21,0.4-0.39,0.54c-0.18,0.15-0.44,0.22-0.79,0.22c-0.26,0-0.48-0.05-0.69-0.16
		c-0.2-0.11-0.37-0.26-0.51-0.45c-0.14-0.19-0.24-0.42-0.31-0.68c-0.07-0.26-0.11-0.55-0.11-0.86c0-0.31,0.03-0.59,0.1-0.85
		c0.07-0.26,0.17-0.48,0.31-0.67c0.14-0.19,0.31-0.33,0.51-0.44c0.2-0.1,0.43-0.16,0.7-0.16c0.3,0,0.55,0.07,0.75,0.2
		c0.2,0.13,0.34,0.3,0.41,0.51h0.02v-2.59h0.86v6.01H135.2z M135.2,241.1c0-0.22-0.02-0.42-0.06-0.61c-0.04-0.19-0.1-0.35-0.19-0.49
		c-0.08-0.14-0.19-0.25-0.31-0.32c-0.12-0.08-0.26-0.12-0.43-0.12c-0.17,0-0.31,0.04-0.43,0.12c-0.12,0.08-0.22,0.19-0.29,0.32
		c-0.08,0.14-0.13,0.3-0.17,0.49c-0.04,0.19-0.06,0.39-0.06,0.61c0,0.22,0.02,0.42,0.06,0.6c0.04,0.19,0.09,0.35,0.17,0.48
		c0.08,0.14,0.18,0.25,0.29,0.33c0.12,0.08,0.26,0.12,0.43,0.12c0.16,0,0.3-0.04,0.43-0.12c0.12-0.08,0.23-0.19,0.31-0.33
		c0.08-0.14,0.14-0.3,0.18-0.48C135.18,241.52,135.2,241.32,135.2,241.1z"/>
	<path d="M142.61,243.82c-0.06,0.18-0.13,0.34-0.21,0.49c-0.08,0.15-0.17,0.27-0.28,0.37c-0.11,0.1-0.24,0.18-0.4,0.24
		c-0.15,0.06-0.34,0.08-0.55,0.08c-0.11,0-0.22-0.01-0.33-0.02c-0.11-0.01-0.2-0.03-0.26-0.04l0.11-0.61
		c0.13,0.04,0.26,0.06,0.4,0.06c0.2,0,0.34-0.05,0.44-0.14c0.1-0.1,0.17-0.23,0.23-0.4l0.19-0.63l-1.5-4.11h0.91l1,3.19h0.02
		l0.91-3.19h0.88L142.61,243.82z"/>
	<path d="M149.27,241.11c0,0.32-0.04,0.61-0.13,0.87c-0.08,0.26-0.21,0.48-0.36,0.67c-0.16,0.19-0.35,0.33-0.58,0.43
		c-0.23,0.1-0.49,0.16-0.78,0.16c-0.28,0-0.54-0.05-0.77-0.16c-0.23-0.1-0.42-0.25-0.58-0.43c-0.16-0.19-0.28-0.41-0.36-0.67
		c-0.08-0.26-0.13-0.55-0.13-0.87s0.04-0.61,0.13-0.87c0.08-0.27,0.2-0.49,0.36-0.68c0.15-0.19,0.35-0.33,0.58-0.43
		c0.23-0.1,0.49-0.16,0.78-0.16c0.29,0,0.55,0.05,0.78,0.16s0.42,0.25,0.58,0.43c0.16,0.19,0.28,0.41,0.36,0.68
		C149.22,240.5,149.27,240.79,149.27,241.11z M148.38,241.1c0-0.22-0.02-0.42-0.06-0.61c-0.04-0.19-0.1-0.35-0.18-0.49
		s-0.18-0.25-0.3-0.32c-0.12-0.08-0.26-0.12-0.43-0.12c-0.16,0-0.3,0.04-0.42,0.12c-0.12,0.08-0.22,0.19-0.3,0.32
		c-0.08,0.14-0.13,0.3-0.17,0.49c-0.04,0.19-0.06,0.39-0.06,0.61c0,0.22,0.02,0.42,0.06,0.6c0.04,0.19,0.09,0.35,0.17,0.48
		c0.08,0.14,0.18,0.25,0.3,0.33c0.12,0.08,0.26,0.12,0.42,0.12c0.17,0,0.31-0.04,0.44-0.12c0.12-0.08,0.22-0.19,0.3-0.33
		c0.08-0.14,0.13-0.3,0.17-0.48C148.36,241.52,148.38,241.32,148.38,241.1z"/>
	<path d="M152.09,239.11v2.54c0,0.11,0.01,0.22,0.02,0.34c0.01,0.12,0.05,0.22,0.1,0.32c0.05,0.1,0.12,0.17,0.22,0.23
		c0.09,0.06,0.22,0.09,0.38,0.09c0.14,0,0.27-0.03,0.39-0.09c0.12-0.06,0.22-0.15,0.31-0.25c0.09-0.11,0.15-0.24,0.2-0.39
		c0.05-0.15,0.07-0.32,0.07-0.5v-2.29h0.86v2.98c0,0.16,0,0.33,0.01,0.51c0.01,0.18,0.02,0.34,0.03,0.49h-0.82
		c-0.02-0.13-0.03-0.26-0.05-0.4c-0.01-0.13-0.01-0.23-0.01-0.29h-0.02c-0.09,0.23-0.25,0.43-0.47,0.59
		c-0.22,0.16-0.49,0.24-0.8,0.24c-0.28,0-0.5-0.04-0.67-0.13c-0.17-0.09-0.3-0.21-0.39-0.35c-0.09-0.15-0.15-0.32-0.19-0.51
		c-0.03-0.19-0.05-0.38-0.05-0.58v-2.54H152.09z"/>
	<path d="M158.26,239.2c0.2-0.15,0.42-0.23,0.68-0.23c0.05,0,0.09,0,0.12,0.01l-0.04,0.71c-0.03-0.01-0.05-0.01-0.08-0.01
		c-0.03,0-0.06,0-0.09,0c-0.16,0-0.3,0.04-0.43,0.12c-0.12,0.08-0.23,0.19-0.31,0.32c-0.08,0.13-0.15,0.28-0.19,0.45
		c-0.04,0.17-0.07,0.34-0.07,0.51v2.02h-0.87v-2.98c0-0.16,0-0.33-0.01-0.51c-0.01-0.18-0.02-0.35-0.03-0.5h0.82
		c0.02,0.13,0.04,0.27,0.05,0.41c0.01,0.14,0.01,0.28,0.01,0.41h0.02C157.92,239.6,158.06,239.35,158.26,239.2z"/>
	<path d="M164.21,239.11v0.62h0.02c0.08-0.22,0.21-0.4,0.39-0.54c0.18-0.14,0.44-0.21,0.79-0.21c0.26,0,0.49,0.06,0.69,0.16
		c0.2,0.11,0.37,0.26,0.51,0.45s0.24,0.42,0.31,0.68c0.07,0.26,0.11,0.55,0.11,0.85s-0.03,0.59-0.1,0.85
		c-0.07,0.26-0.17,0.48-0.31,0.67s-0.31,0.33-0.51,0.44c-0.2,0.11-0.44,0.16-0.7,0.16c-0.3,0-0.55-0.07-0.75-0.2
		c-0.2-0.13-0.34-0.31-0.41-0.51h-0.02V245h-0.86v-5.89H164.21z M164.21,241.1c0,0.22,0.02,0.42,0.06,0.61
		c0.04,0.19,0.1,0.35,0.19,0.49c0.08,0.14,0.19,0.25,0.31,0.33s0.26,0.12,0.42,0.12c0.17,0,0.31-0.04,0.43-0.12
		c0.12-0.08,0.22-0.19,0.29-0.33c0.08-0.14,0.13-0.3,0.17-0.49c0.04-0.19,0.06-0.39,0.06-0.61c0-0.21-0.02-0.41-0.06-0.6
		c-0.04-0.19-0.09-0.35-0.17-0.49c-0.08-0.14-0.18-0.25-0.29-0.32c-0.12-0.08-0.26-0.12-0.43-0.12c-0.16,0-0.3,0.04-0.43,0.12
		c-0.13,0.08-0.23,0.19-0.31,0.32c-0.08,0.14-0.14,0.3-0.18,0.49C164.23,240.68,164.21,240.88,164.21,241.1z"/>
	<path d="M171.21,243.09c-0.03-0.12-0.05-0.24-0.06-0.37c-0.01-0.12-0.02-0.22-0.02-0.29h-0.02c-0.07,0.24-0.21,0.43-0.4,0.56
		c-0.19,0.13-0.46,0.2-0.79,0.2c-0.14,0-0.29-0.02-0.44-0.06c-0.15-0.04-0.28-0.11-0.4-0.21c-0.12-0.1-0.22-0.22-0.29-0.37
		c-0.08-0.15-0.12-0.33-0.12-0.55c0-0.29,0.07-0.52,0.2-0.7c0.13-0.18,0.3-0.33,0.5-0.43c0.2-0.1,0.42-0.17,0.66-0.21
		c0.24-0.04,0.48-0.06,0.7-0.06h0.33v-0.17c0-0.31-0.08-0.54-0.23-0.68c-0.15-0.14-0.36-0.21-0.61-0.21c-0.19,0-0.36,0.04-0.53,0.11
		c-0.16,0.07-0.3,0.17-0.41,0.29l-0.44-0.42c0.17-0.18,0.39-0.32,0.66-0.42s0.54-0.15,0.8-0.15c0.29,0,0.53,0.04,0.73,0.11
		c0.2,0.07,0.36,0.18,0.48,0.33c0.12,0.14,0.21,0.32,0.26,0.53c0.05,0.21,0.07,0.45,0.07,0.71v1.61c0,0.14,0.01,0.29,0.02,0.45
		c0.01,0.16,0.03,0.29,0.05,0.39H171.21z M171.08,241.13h-0.37c-0.15,0-0.3,0.01-0.45,0.03c-0.15,0.02-0.28,0.06-0.39,0.12
		c-0.11,0.06-0.21,0.14-0.28,0.25s-0.11,0.24-0.11,0.4c0,0.24,0.07,0.42,0.2,0.54c0.14,0.11,0.29,0.17,0.46,0.17
		c0.18,0,0.32-0.04,0.44-0.12c0.12-0.08,0.21-0.19,0.29-0.31c0.07-0.13,0.13-0.27,0.16-0.42c0.03-0.15,0.05-0.3,0.05-0.43V241.13z"
		/>
	<path d="M178.07,243.09h-0.99l-0.78-3.02h-0.01l-0.79,3.02h-0.96l-1.05-3.99h0.88l0.71,3.21h0.02l0.82-3.21h0.8l0.84,3.21h0.01
		l0.72-3.21h0.87L178.07,243.09z"/>
	<path d="M182.77,237.56c-0.09-0.03-0.19-0.04-0.29-0.04c-0.14,0-0.25,0.02-0.33,0.08c-0.09,0.05-0.16,0.11-0.21,0.19
		c-0.05,0.08-0.09,0.17-0.11,0.27c-0.02,0.1-0.03,0.21-0.03,0.32v0.72h0.83v0.55h-0.82v3.44h-0.85v-3.44h-0.66v-0.55h0.66v-0.73
		c0-0.21,0.03-0.4,0.08-0.57c0.05-0.17,0.14-0.33,0.25-0.45c0.11-0.13,0.26-0.23,0.44-0.3c0.18-0.07,0.39-0.11,0.64-0.11
		c0.07,0,0.15,0,0.23,0.01c0.08,0.01,0.15,0.02,0.22,0.04L182.77,237.56z"/>
	<path d="M184.82,241.27c0,0.19,0.02,0.37,0.07,0.54c0.04,0.17,0.11,0.31,0.19,0.43c0.08,0.12,0.19,0.22,0.32,0.29
		c0.13,0.07,0.28,0.1,0.44,0.1c0.23,0,0.41-0.06,0.55-0.17c0.13-0.11,0.24-0.24,0.32-0.4l0.65,0.29c-0.14,0.25-0.33,0.46-0.58,0.62
		c-0.25,0.16-0.57,0.24-0.96,0.24c-0.58,0-1.03-0.19-1.36-0.56c-0.33-0.37-0.5-0.89-0.5-1.56c0-0.32,0.04-0.61,0.13-0.87
		c0.09-0.26,0.21-0.49,0.37-0.68c0.16-0.19,0.36-0.33,0.59-0.44s0.48-0.16,0.76-0.16c0.31,0,0.57,0.05,0.79,0.16
		c0.22,0.1,0.39,0.24,0.53,0.42c0.14,0.18,0.24,0.39,0.3,0.63c0.06,0.24,0.09,0.5,0.09,0.77v0.33H184.82z M186.63,240.73
		c0-0.35-0.07-0.63-0.21-0.84c-0.14-0.21-0.36-0.32-0.65-0.32c-0.17,0-0.32,0.04-0.44,0.12c-0.12,0.08-0.21,0.18-0.29,0.3
		c-0.07,0.12-0.13,0.24-0.16,0.38c-0.03,0.13-0.05,0.25-0.05,0.36H186.63z"/>
	<path d="M191.02,243.23c-0.3,0-0.57-0.05-0.8-0.16c-0.23-0.1-0.42-0.25-0.57-0.44c-0.15-0.19-0.27-0.41-0.34-0.67
		c-0.08-0.26-0.12-0.55-0.12-0.87c0-0.32,0.04-0.61,0.12-0.87c0.08-0.26,0.19-0.48,0.35-0.67c0.15-0.19,0.35-0.33,0.58-0.44
		c0.23-0.1,0.49-0.16,0.8-0.16c0.27,0,0.5,0.04,0.68,0.11c0.18,0.07,0.33,0.15,0.44,0.23l-0.43,0.51c-0.08-0.08-0.18-0.14-0.28-0.18
		c-0.11-0.05-0.24-0.07-0.39-0.07c-0.16,0-0.3,0.04-0.42,0.12c-0.12,0.08-0.22,0.18-0.3,0.32c-0.08,0.14-0.14,0.3-0.18,0.48
		c-0.04,0.19-0.06,0.39-0.06,0.61c0,0.22,0.02,0.43,0.06,0.61c0.04,0.18,0.1,0.34,0.18,0.47c0.08,0.13,0.19,0.24,0.31,0.31
		c0.13,0.07,0.28,0.11,0.46,0.11c0.15,0,0.29-0.02,0.4-0.07c0.11-0.05,0.21-0.11,0.29-0.19l0.38,0.52
		C191.88,243.11,191.5,243.23,191.02,243.23z"/>
	<path d="M195.27,243.16c-0.12,0.02-0.24,0.03-0.36,0.03c-0.39,0-0.67-0.1-0.83-0.29c-0.16-0.2-0.25-0.47-0.25-0.82v-2.43h-0.65
		v-0.55h0.64v-1.07h0.84v1.07h0.9v0.55h-0.9v2.29c0,0.23,0.04,0.4,0.13,0.5c0.09,0.1,0.22,0.15,0.39,0.15
		c0.06,0,0.13-0.01,0.19-0.02c0.07-0.01,0.12-0.02,0.17-0.04l0.02,0.54C195.49,243.12,195.39,243.14,195.27,243.16z"/>
	<path d="M201.27,239.21c0.21-0.16,0.49-0.24,0.82-0.24c0.18,0,0.34,0.02,0.47,0.07c0.13,0.05,0.24,0.11,0.33,0.19
		c0.09,0.08,0.16,0.16,0.22,0.26c0.05,0.1,0.1,0.2,0.13,0.31h0.02c0.05-0.09,0.11-0.19,0.18-0.29c0.07-0.1,0.17-0.19,0.28-0.27
		c0.11-0.08,0.24-0.14,0.38-0.19s0.31-0.08,0.49-0.08c0.27,0,0.49,0.05,0.66,0.14c0.17,0.09,0.3,0.21,0.39,0.36
		c0.09,0.15,0.15,0.32,0.19,0.51c0.03,0.19,0.05,0.38,0.05,0.58v2.54h-0.87v-2.55c0-0.11-0.01-0.23-0.02-0.34
		c-0.01-0.12-0.05-0.22-0.1-0.32c-0.05-0.1-0.12-0.17-0.22-0.23c-0.09-0.06-0.22-0.09-0.38-0.09c-0.14,0-0.27,0.03-0.39,0.09
		c-0.12,0.06-0.22,0.15-0.3,0.25c-0.08,0.11-0.15,0.24-0.2,0.39c-0.05,0.15-0.07,0.32-0.07,0.5v2.29h-0.85v-2.55
		c0-0.11-0.01-0.23-0.02-0.34c-0.01-0.12-0.05-0.22-0.1-0.32c-0.05-0.1-0.12-0.17-0.22-0.23c-0.09-0.06-0.22-0.09-0.38-0.09
		c-0.14,0-0.27,0.03-0.39,0.09c-0.12,0.06-0.22,0.15-0.3,0.25c-0.08,0.11-0.15,0.24-0.19,0.39c-0.04,0.15-0.07,0.32-0.07,0.5v2.29
		h-0.85v-2.98c0-0.16,0-0.33-0.01-0.51c-0.01-0.18-0.02-0.35-0.03-0.5h0.82c0.02,0.13,0.04,0.26,0.05,0.4
		c0.01,0.13,0.01,0.23,0.01,0.29h0.02C200.91,239.56,201.06,239.37,201.27,239.21z"/>
	<path d="M210.31,243.09c-0.03-0.12-0.05-0.24-0.06-0.37s-0.02-0.22-0.02-0.29h-0.02c-0.07,0.24-0.21,0.43-0.4,0.56
		c-0.19,0.13-0.46,0.2-0.79,0.2c-0.14,0-0.29-0.02-0.44-0.06c-0.15-0.04-0.28-0.11-0.4-0.21c-0.12-0.1-0.22-0.22-0.29-0.37
		c-0.08-0.15-0.12-0.33-0.12-0.55c0-0.29,0.07-0.52,0.2-0.7c0.13-0.18,0.3-0.33,0.5-0.43c0.2-0.1,0.42-0.17,0.66-0.21
		c0.24-0.04,0.48-0.06,0.7-0.06h0.33v-0.17c0-0.31-0.08-0.54-0.23-0.68c-0.15-0.14-0.36-0.21-0.61-0.21c-0.19,0-0.36,0.04-0.53,0.11
		c-0.16,0.07-0.3,0.17-0.41,0.29l-0.44-0.42c0.17-0.18,0.39-0.32,0.66-0.42s0.54-0.15,0.8-0.15c0.29,0,0.53,0.04,0.73,0.11
		c0.2,0.07,0.36,0.18,0.48,0.33c0.12,0.14,0.21,0.32,0.26,0.53c0.05,0.21,0.07,0.45,0.07,0.71v1.61c0,0.14,0.01,0.29,0.02,0.45
		c0.01,0.16,0.03,0.29,0.05,0.39H210.31z M210.18,241.13h-0.37c-0.15,0-0.3,0.01-0.45,0.03c-0.15,0.02-0.28,0.06-0.39,0.12
		c-0.11,0.06-0.21,0.14-0.28,0.25s-0.11,0.24-0.11,0.4c0,0.24,0.07,0.42,0.2,0.54c0.14,0.11,0.29,0.17,0.46,0.17
		c0.18,0,0.32-0.04,0.44-0.12c0.12-0.08,0.21-0.19,0.29-0.31c0.07-0.13,0.13-0.27,0.16-0.42c0.03-0.15,0.05-0.3,0.05-0.43V241.13z"
		/>
	<path d="M214.65,243.16c-0.12,0.02-0.24,0.03-0.36,0.03c-0.39,0-0.67-0.1-0.83-0.29c-0.16-0.2-0.25-0.47-0.25-0.82v-2.43h-0.65
		v-0.55h0.64v-1.07h0.84v1.07h0.9v0.55h-0.9v2.29c0,0.23,0.04,0.4,0.13,0.5c0.09,0.1,0.22,0.15,0.39,0.15
		c0.06,0,0.13-0.01,0.19-0.02c0.07-0.01,0.12-0.02,0.17-0.04l0.02,0.54C214.87,243.12,214.77,243.14,214.65,243.16z"/>
	<path d="M218.15,243.23c-0.3,0-0.57-0.05-0.8-0.16c-0.23-0.1-0.42-0.25-0.57-0.44c-0.15-0.19-0.27-0.41-0.34-0.67
		c-0.08-0.26-0.12-0.55-0.12-0.87c0-0.32,0.04-0.61,0.12-0.87c0.08-0.26,0.19-0.48,0.35-0.67c0.15-0.19,0.35-0.33,0.58-0.44
		c0.23-0.1,0.49-0.16,0.8-0.16c0.27,0,0.5,0.04,0.68,0.11c0.18,0.07,0.33,0.15,0.44,0.23l-0.43,0.51c-0.08-0.08-0.18-0.14-0.28-0.18
		c-0.11-0.05-0.24-0.07-0.39-0.07c-0.16,0-0.3,0.04-0.42,0.12c-0.12,0.08-0.22,0.18-0.3,0.32c-0.08,0.14-0.14,0.3-0.18,0.48
		c-0.04,0.19-0.06,0.39-0.06,0.61c0,0.22,0.02,0.43,0.06,0.61c0.04,0.18,0.1,0.34,0.18,0.47c0.08,0.13,0.19,0.24,0.31,0.31
		c0.13,0.07,0.28,0.11,0.46,0.11c0.15,0,0.29-0.02,0.4-0.07c0.11-0.05,0.21-0.11,0.29-0.19l0.38,0.52
		C219.02,243.11,218.64,243.23,218.15,243.23z"/>
	<path d="M221.76,243.09h-0.87v-6.01h0.87v2.69h0.02c0.09-0.22,0.24-0.41,0.45-0.57c0.22-0.16,0.48-0.24,0.8-0.24
		c0.27,0,0.49,0.05,0.66,0.14c0.17,0.09,0.3,0.21,0.39,0.36c0.09,0.15,0.15,0.32,0.19,0.51c0.03,0.19,0.05,0.38,0.05,0.58v2.54
		h-0.87v-2.55c0-0.11-0.01-0.23-0.02-0.34c-0.01-0.12-0.05-0.22-0.1-0.32c-0.05-0.1-0.12-0.17-0.22-0.23
		c-0.09-0.06-0.22-0.09-0.38-0.09c-0.14,0-0.27,0.03-0.39,0.09c-0.12,0.06-0.23,0.15-0.31,0.25c-0.09,0.11-0.15,0.24-0.2,0.39
		c-0.05,0.15-0.07,0.32-0.07,0.5V243.09z"/>
</g>
</svg>
