<?xml version="1.0" encoding="utf-8"?>
<!-- Generator: Adobe Illustrator 23.0.3, SVG Export Plug-In . SVG Version: 6.00 Build 0)  -->
<svg version="1.1" id="Layer_1" xmlns="http://www.w3.org/2000/svg" xmlns:xlink="http://www.w3.org/1999/xlink" x="0px" y="0px"
	 viewBox="0 0 627 521.55" style="enable-background:new 0 0 627 521.55;" xml:space="preserve">
<style type="text/css">
	.st0{fill:#FFBB28;}
	.st1{fill:#4DBFDD;}
	.st2{fill:#F7C1B3;}
	.st3{fill:#38579C;}
	.st4{fill:#000347;}
	.st5{fill:#FE6120;}
	.st6{fill:#CB825D;}
</style>
<g>
	<path class="st0" d="M367.02,187.99c-2.37-10.72-13.79-15.06-16.59-25.76c-4.28-16.32,4.01-39.38-18.54-45.95
		c-12.66-3.69-35.02,3.86-46.5,47.24c-2.08,7.84-0.63,10.99,2.67,17.88c4.1,8.56-3.9,13.96-7.31,21.38
		c-3.21,6.98-6.73,15.35-2.92,22.92c3.91-5.13,5.57-12.12,11.39-15.91c1.84,8.41,1.17,15.04,7.72,21.82
		c6.47,6.7,13.83,12.09,22.18,16.47c2.16-6.29,12.37-11.6,17.37-15.76c9.78-8.12,16.39-15.49,17.65-28.74
		c1.71,7.16,5.13,14.25,3.49,21.84C366.28,217.67,369.4,198.73,367.02,187.99z"/>
	<g>
		<path class="st1" d="M358.95,174.98c3.31,18.09,6.88,36.26,12.55,53.37l-15.84,8.47c-5.37-10.86-9.43-20.85-12.38-29.73
			c-3.57-10.73-4.19-15.04-7.29-24.18c-0.29-0.89-0.26-0.92-0.4-1.4c-0.54-2.27-0.91-3.68-0.71-5.99c0.03-0.03,0.02-0.09,0.01-0.14
			c0-0.03,0.02-0.09,0.01-0.14c0.03-0.03,0.02-0.06,0.02-0.08c0-0.03,0-0.03,0-0.03c0.02-0.08,0.07-0.2,0.08-0.34
			c0.4-2,2.29-7.19,5.33-8.83c1-0.54,2.35-1.44,3.65-1.79c3.45-0.94,6.57-0.93,9.8,0.73c0.15,0.07,0.18,0.09,0.3,0.19
			c0.12,0.07,0-0.03,0.15,0.12c0.09,0.07,0.06-0.01,0.06-0.01l0.03,0c0.03,0.05,0.1,0.1,0.16,0.18c0.03,0,0.03,0.05,0.03,0.05
			c0.09,0.07,0.19,0.18,0.28,0.28C356.11,166.97,359.39,171.92,358.95,174.98z"/>
		<path class="st2" d="M417.6,290.02c-5.73-0.01-14.15-1.37-20.29-2.89c1.65,2.31,3.49,4.59,5.2,6.92
			c-2.67,3.96-10.24-4.84-11.51-6.19c-1.68-2.05-3.39-4.16-5.11-6.29l8.57-4.57c0.03,0.05,0.06,0.08,0.1,0.13
			c9.56-0.05,18.85,1.81,25.25,9.17C420.83,287.47,420.72,290.03,417.6,290.02z"/>
		<path class="st3" d="M394.45,277l-8.57,4.57c-10.82-13.45-21.92-28.33-29.05-42.37c-0.39-0.79-0.81-1.58-1.17-2.38l15.84-8.47
			c0.49,1.53,1.01,3.03,1.53,4.53C379.13,249.9,384.78,262.17,394.45,277z"/>
	</g>
	<g>
		<path class="st2" d="M305.1,514.1c-1.1,1.27-3.42,1.73-8.5-1.38c0,0-7.76-4.85-10.11-9.58c0-0.03,0-0.03,0-0.03l4.32-4.6
			c0,0,2.17-13.33,6.13-31.06c3.95,2.92,7.93,5.45,11.86,7.63l-11.58,27.15C297.22,502.23,299.22,512.75,305.1,514.1z"/>
		<path class="st2" d="M367.05,287.57v1.02c0-0.3-0.03-0.66-0.03-1.02H367.05z"/>
		<path class="st3" d="M287.29,511.81c3.15,1.78,5.78,4.28,7.66,7.3c1.08,1.75,3.12,2.69,5.21,2.39l11.9-1.71
			c0.67-2.35-0.93-4.73-3.38-5.17l-2.34-0.37c-0.44,0.01-0.85-0.03-1.26-0.13c-1.08,1.24-3.41,1.72-8.5-1.4c0,0-7.76-4.85-10.1-9.57
			l-0.75,1.37C283.94,506.9,284.66,510.3,287.29,511.81z"/>
	</g>
	<g>
		<path class="st3" d="M374.7,209.04c-0.54,2.95-1.72,5.78-3.53,8.29l-3.05,4.3l-1.21,1.71l-0.2,0.3c-0.88,1.27-2.09,4.68-3.28,8.67
			c0,0.41,0.68,10.02,1.44,21.31c-11.24,4.38-28.49,1.49-41.59-1.98c1.86-6.31,3.11-15.37,2.88-19.5c-0.06-0.94-0.17-1.87-0.37-2.84
			c-0.03-0.44-0.11-0.91-0.23-1.38c-0.54-2.18-1.13-4.35-1.81-6.5c-0.06-0.22-0.14-0.44-0.2-0.66l-4.66-14.1
			c-1.33-4.1-2.46-10.11-3.28-15.42c-1.13-7.11-2-17.6,4.43-21.07c0.51-0.25,1.02-0.52,1.52-0.8c2.46-1.32,5.11-2.67,7.71-3.91
			c0.51-0.25,1.04-0.47,1.58-0.66c0.51-0.17,0.99-0.33,1.5-0.44c0.37-0.11,0.76-0.19,1.16-0.25c0.28-0.08,0.56-0.11,0.85-0.14
			c0.45-0.05,0.9-0.11,1.38-0.14c0.31-0.03,0.62-0.03,0.93-0.03c1.02,0,2,0.08,2.99,0.25c0.34,0.05,0.71,0.11,1.04,0.22
			c0.34,0.08,0.68,0.17,1.02,0.28c0.42,0.14,0.85,0.28,1.24,0.44c0.56,0.19,1.13,0.44,1.67,0.74c0.23,0.11,0.42,0.22,0.65,0.36
			c0.73,0.41,1.47,0.88,2.15,1.46c0.03,0.03,0.03,0.03,0.03,0.03c0.71,0.55,1.38,1.18,1.98,1.87l19.96,22.33
			C373.68,196.53,375.83,202.87,374.7,209.04z"/>
		<path class="st2" d="M421.63,502.81c-1.72,2.07-8.3,3.8-27.95,2.51l-0.2-4.27c-0.45-1.68-0.88-3.3-1.3-4.96
			c-0.62-1.21-1.21-2.42-1.81-3.66l-0.03,0.03c-1.64-3.25-3.19-6.42-4.72-9.56c4.86-1.38,9.15-2.95,12.82-4.49l2.03,9.25l2.43,11.04
			C402.68,499.59,414.06,501.57,421.63,502.81z"/>
	</g>
	<path class="st3" d="M399.23,512.64c2.12-0.02,19.55-1.66,26.29-3.13c1.42-0.29,2.5-0.63,3.31-0.95c2.02-0.81,1.54-4.54-0.59-4.74
		c-0.3-0.03-3.04-0.44-6.6-1.01c-1.73,2.05-8.32,3.8-27.96,2.51l0.09,1.53C393.46,509.98,396.01,512.69,399.23,512.64z"/>
	<path class="st2" d="M337.37,176.38l-1.61-0.72c-3.7-1.62-6.52-4.74-7.74-8.51c-0.14-0.44-0.28-0.91-0.45-1.38
		c-0.99-3-2.09-6.42-3.02-9.14c-0.23-0.69-0.34-1.4-0.34-2.12c0-2.29,1.19-4.46,3.25-5.73c3.61-2.23,8.44-0.77,10.11,3.11
		l6.32,14.65l1.1,2.53C347.03,173.76,342.14,178.44,337.37,176.38z"/>
	<path class="st0" d="M338.04,160.77"/>
	<g>
		<g>
			<path class="st2" d="M350.79,133.98c-0.05-3.89-2.29-8.51-5.5-8.03c-0.96,0.14-1.94,0.73-2.84,1.59
				c-4.96-9.93-15.83-19.73-23.86-18.54c-10.51,1.56-18.19,8.61-13.31,34.98c1.93,10.43,11.77,19.58,22.31,18.93
				c7.92-0.49,14.8-10.55,16.88-19.94C347.6,141.24,350.85,138.92,350.79,133.98z"/>
			<g>
				<path class="st4" d="M317,147.3c-0.05,0.02-0.09,0.03-0.14,0.03c-1.24,0.11-2.94,0.12-3.35-0.95c-0.58-1.49,2.19-3.7,3.41-4.58
					c0.26-0.18,0.62-0.13,0.81,0.12c0.19,0.25,0.14,0.6-0.12,0.79c-1.72,1.25-3.19,2.84-3.02,3.27c0,0,0.24,0.39,2.17,0.22
					c0.32-0.03,0.6,0.2,0.63,0.51C317.4,146.98,317.24,147.21,317,147.3z"/>
				<path class="st4" d="M319.8,153.66c-0.64,0.15-1.04,0.2-1.06,0.2c-0.36,0.04-0.69-0.21-0.73-0.57
					c-0.04-0.35,0.19-0.67,0.58-0.71c0.33-0.03,8.18-1.01,8.25-8.71c0-0.35,0.29-0.64,0.67-0.64c0.36,0,0.66,0.29,0.65,0.65
					C328.09,150.91,322.25,153.06,319.8,153.66z"/>
				<path class="st4" d="M326.01,135.87c0.34,1.1-0.21,2.23-1.23,2.53c-1.02,0.3-2.13-0.34-2.47-1.44c-0.34-1.1,0.21-2.23,1.23-2.53
					C324.56,134.13,325.67,134.77,326.01,135.87z"/>
				<path class="st4" d="M313.19,139.38c0.34,1.1-0.21,2.23-1.23,2.53c-1.02,0.3-2.13-0.34-2.47-1.44c-0.34-1.1,0.21-2.23,1.23-2.53
					C311.74,137.64,312.85,138.28,313.19,139.38z"/>
				<path class="st4" d="M329.36,130.77c-0.23,0.08-0.51,0.03-0.69-0.16c-2.93-2.93-5.77-0.56-5.89-0.45
					c-0.27,0.23-0.69,0.21-0.93-0.06c-0.24-0.27-0.21-0.67,0.06-0.91c1.34-1.15,4.67-2.51,7.7,0.52c0.25,0.25,0.25,0.66-0.01,0.91
					C329.52,130.7,329.44,130.74,329.36,130.77z"/>
				<path class="st4" d="M311.37,132.84c-0.1,0.18-0.31,0.29-0.53,0.27c-3.51-0.29-3.98,2.74-4,2.87c-0.04,0.29-0.32,0.5-0.62,0.46
					c-0.3-0.04-0.51-0.31-0.47-0.61c0.2-1.44,1.55-4.09,5.19-3.79c0.3,0.03,0.53,0.29,0.5,0.59
					C311.44,132.7,311.41,132.78,311.37,132.84z"/>
			</g>
			<path class="st0" d="M329.23,107.67c-6.46-3.17-14.18-3.51-20.46-0.07c-3.34,1.84-6.09,4.62-5.79,8.72
				c-0.44,0.26-0.87,0.51-1.31,0.86c-4.05,3.23-6.06,7.37-5.79,12.46c0.19,3.75,1.08,7.92,2.59,11.47c0.73,1.72,2.32,3.93,3.69,6.16
				c-0.23-3.41,0.62-7.01,2.12-9.83c1.76-3.32,4.96-5.61,6.67-8.88c0.41-0.79,0.64-1.54,0.76-2.26c3.97,1.52,9.91,2.68,18.31,1.66
				c4.15-0.52,8.17,0.9,10.97,3.58c0.38,0.37,0.74,0.76,1.08,1.16c1.27,1.55,2.13,3.4,2.51,5.47c0.01,0.1,0.02,0.19,0.06,0.3
				C344.86,137.56,349.46,117.57,329.23,107.67z"/>
		</g>
		<path class="st4" d="M304.73,145.43c-0.19-1.32,0.16-2.36,0.19-2.8c0.53-1.65,1.76-2.92,3.34-3.17c1.59-0.23,3.1,0.56,4.14,1.94
			c1.34-0.9,3.26-1.53,5.4-0.86c0.11-2.38,1.54-4.36,3.59-4.69c2.08-0.32,4.13,1.19,4.95,3.49l11.83-10.78
			c0.4,0.39,0.78,0.8,1.14,1.22l-12.58,11.46c0,0,0.44,4.39-3.63,5.2c-2.01,0.38-3.97-1.09-4.82-3.22c0,0-2.71-1.58-4.85,0.46
			c0.03,0.13,0.08,0.25,0.09,0.39c0.48,2.92-1.12,5.58-3.52,5.96C307.54,150.42,305.12,148.35,304.73,145.43z M322.8,144.7
			c1.43-0.2,2.36-2.03,2.03-3.94c-0.3-1.96-1.73-3.37-3.16-3.13c-1.43,0.2-2.34,2.01-2.03,3.94
			C319.93,143.47,321.39,144.92,322.8,144.7z M309.67,148.3c1.43-0.2,2.36-2.03,2.05-3.95c-0.1-0.53-0.26-1.03-0.51-1.46
			c0,0-0.22-0.27-0.18-0.3c-0.64-0.95-1.55-1.51-2.5-1.36c-1.43,0.2-2.33,1.98-2.03,3.94C306.83,147.11,308.25,148.5,309.67,148.3z"
			/>
	</g>
	<path class="st5" d="M367.05,287.57v1.02c0-0.3-0.03-0.66-0.03-1.02H367.05z"/>
	<path class="st5" d="M398.45,478.41c-3.67,1.54-7.96,3.11-12.82,4.49c-16.91-34.73-27.9-63.78-30.3-93.55
		c-2.26-3-4.49-6.5-6.72-10.35c-1.61,4.13-3.36,8.32-5.22,12.5c-1.67,4.1-3.25,8.23-4.74,12.39c-1.47,4.19-3.13,8.32-4.83,12.42
		l-25.02,58.77c-3.92-2.18-7.91-4.71-11.86-7.63c5.87-26.52,15.67-62.9,27.9-79.34c-0.4-14.07,1.41-33.49,3.67-51.25
		c-1.38-1.63-2.68-3.28-3.92-4.96c0,0-30.3-27.54-4.04-73.86c0.23-0.44,0.51-0.88,0.76-1.35c0.71-1.21,1.38-2.97,1.98-5.07
		c13.1,3.47,30.35,6.36,41.59,1.98c0.42,6.36,0.9,13.25,1.27,19.3c0.42,6.25,0.73,11.62,0.88,14.65c0,0.36,0.03,0.72,0.03,1.02
		c0.03,0.55,0.03,0.99,0.03,1.27c0.17,12.09-1.1,25.89-4.07,40.78c0.48,1.9,0.99,3.77,1.47,5.64c4.4,16.72,8.64,31.09,8.89,32.61
		l2.46,10.52c0.99,4.32,2.09,8.59,3.3,12.83c1.21,4.27,2.26,8.59,3.19,12.89L398.45,478.41z"/>
	<path class="st1" d="M363.43,232.31c0,0,0.68,10.02,1.44,21.31c0.42,6.36,0.9,13.25,1.27,19.3c-22.34,0.64-41.73-1.02-45.6-14.87
		c0.23-0.44,0.51-0.88,0.76-1.35c0.71-1.21,1.38-2.97,1.98-5.07c1.86-6.31,3.11-15.37,2.88-19.5c-0.06-0.94-0.17-1.87-0.37-2.84
		C341.88,234.26,355.56,236.53,363.43,232.31z"/>
	<g>
		<path class="st1" d="M68.5,483.06c36.16,21.26,72.85-6.59,94.92-34.39c12.26-15.44,20.94-32.05,24.97-51.23
			c5.2-24.75,4.64-51.4,22.55-71.57c33.65-37.91,86.48-7.37,129.34-14.24c15.94-2.56,32.45-7.37,43.18-19.81
			c12.39-14.36,16.54-32.39,16.83-50.71c0.06-3.55-5.59-3.55-5.65,0c-0.33,20.53-6.33,44.08-25.48,55.69
			c-17.84,10.81-41.98,11.87-62.21,9.94c-33.39-3.18-67.29-14.74-95.06,10.26c-29.35,26.42-21.18,66.99-35.46,100.11
			c-15.36,35.63-62.04,86.51-105.08,61.2C68.23,476.47,65.39,481.23,68.5,483.06L68.5,483.06z"/>
		<g>
			<path class="st6" d="M18.31,497.84l10.37,10.64c0.79,0.81,2.04,1,3.05,0.47l3.08-1.63c1.26-0.67,1.7-2.21,0.98-3.42l-7.47-12.52
				L18.31,497.84z"/>
			<path class="st6" d="M44.4,507.35l4.17,2.71c0.99,0.64,2.31,0.39,2.99-0.55l5.41-7.61l-9.4-7.21l-4,10.14
				C43.22,505.75,43.56,506.8,44.4,507.35z"/>
			<path class="st0" d="M106.24,450.41c-0.03,0.3-0.08,0.6-0.14,0.91l0.2,2.43l-0.39,1.81l-1.08,5.08
				c-0.72,3.37-3.32,6.07-6.73,6.96l-15.73,2.31c-5.5,0.81-10.44,3.76-13.67,8.19l-9.57,13.12c1.76,4.4,5.33,7.54,9.79,10.08
				c1.18,0.67,1.52,2.18,0.74,3.27l-2.85,3.98c-0.75,1.04-2.23,1.29-3.29,0.55l-20.41-14.28c-6.99-1.33-13.83-0.88-20.49,1.65
				c-3.97,6.13-8.85,11.12-14.44,15.23c-1.12,0.82-2.71,0.61-3.57-0.47l-2.58-3.23c-0.75-0.94-0.72-2.27,0.08-3.17l3.2-3.61
				c0.73-0.83,1.17-1.88,1.2-2.97c0.16-6.53,5.43-22.82,5.43-22.82c-16.31-7.8-14.62-17.24-2.73-27.6
				c-5.55,11.61,5.7,16.78,5.7,16.78c8.36-1.17,16.76-1.75,25.17-1.77c7.88-0.02,14.92-4.79,17.62-12.01
				c-1.07-10.55,1.15-19.11,7.11-25.43l3.34,8.46c0.68,2.65,3.09,4.54,5.89,4.63l22.9,1.8c0.04,0,0.08,0,0.12,0
				C102.63,440.4,106.82,445.13,106.24,450.41z"/>
			<polygon class="st1" points="47.73,458.48 51.89,455.02 72.69,477.86 68.07,483.87 			"/>
			<path class="st4" d="M77.74,448.61c0.39,1.04-0.17,2.19-1.23,2.57c-1.07,0.38-2.25-0.16-2.63-1.2c-0.39-1.04,0.17-2.19,1.23-2.57
				C76.17,447.04,77.35,447.57,77.74,448.61z"/>
			<path class="st4" d="M106.24,450.41c-10.09,0.36-10.21-5.87-9.16-10.09C102.63,440.4,106.82,445.13,106.24,450.41z"/>
			<path class="st0" d="M106.29,453.75c-8.22-6.82-15.38-0.21-19.73,6.02c-2.36,3.38-4.02,7.18-5.06,11.14
				c-0.25,0.95-0.57,1.86-0.96,2.33c0,0,7.71,0.91,14.6-2.09l0,0C108.61,466.16,106.29,453.75,106.29,453.75z"/>
		</g>
	</g>
	<path class="st1" d="M337.37,176.38l-1.61-0.72c-3.7-1.62-6.52-4.74-7.74-8.51c-0.14-0.44-0.28-0.91-0.45-1.38
		c3.42,1.13,10.8,0.83,15.14-1.96l2.28,5.26C347.03,173.76,342.14,178.44,337.37,176.38z"/>
	<g>
		<path class="st2" d="M399.94,242.68c-1.39-0.15-2.87-0.07-4.36,0.15c-0.13-1.18-0.86-2.06-0.86-2.06
			c-4.39-1.64-11.84,6.43-11.84,6.43v8.26c5.59,2.3,10.62,2.94,14.35,2.98c4.64,0.05,8.83-3.21,9.29-7.71
			c0-0.03,0.01-0.06,0.01-0.09C406.88,246.7,403.96,243.1,399.94,242.68z"/>
		<g>
			<path class="st1" d="M328.79,190.81l-14.65,48.11l2.99,0.36c-4.38,6.53-7.48,13.16-9.54,19.91h-0.11
				c-8.36-1.29-13.89-9.14-12.11-17.21l13.19-61.22c0.96-4.3,4.32-7.96,8.75-8.67c3.67-0.58,6.72,0.91,9.23,4.27
				C329.58,180.51,330.23,185.9,328.79,190.81z"/>
			<path class="st3" d="M382.89,247.2v8.26l-75.31,3.72c2.06-6.75,5.17-13.38,9.54-19.91L382.89,247.2z"/>
		</g>
	</g>
</g>
<g>
	<g>
		<path class="st0" d="M617.71,38.84c-5.77-19.53-16.65-37.28-38.27-38.76c-17.95-1.23-34.29,12.12-45.27,24.55
			c-36.81,41.73-43.03,102.6-39.34,155.64c2.35,33.73,15.8,75.74,59.03,72.01c36.21-3.13,51.55-37.92,59.14-67.88
			c9.18-36.25,14.54-74,10.81-111.34C622.82,63.15,621.2,50.67,617.71,38.84z"/>
		<path class="st0" d="M531.06,28.57c0.53-0.15,1.04-0.35,1.55-0.56c0.53-0.56,1.07-1.11,1.61-1.66L531.06,28.57z"/>
	</g>
	<path class="st3" d="M588.21,165.37c3.81,11.16-14.68,20.36-25.22,23.11c-0.01-1.61-0.05-3.21-0.06-4.82
		c-0.05-8.02,0.47-35.44,0.59-39.3c6.53-0.03,12.66-0.56,18.18-4.83c7.55-5.83,13.35-14.99,14.66-24.3
		c0.64-4.59-6.56-6.58-7.21-1.94c-1.06,7.58-5.28,14.77-11.19,19.81c-4.22,3.6-9.08,4.02-14.2,4c0.21-5.93,0.42-11.86,0.66-17.79
		c0.1-0.04,0.2-0.03,0.3-0.09c9.46-4.87,17.6-11.36,25.06-18.8c3.37-3.36-1.92-8.52-5.29-5.16c-6,5.99-12.45,11.2-19.74,15.47
		c0.93-22.82,1.85-45.65,1.82-68.5c-0.01-4.69-7.49-4.7-7.48,0c0.02,11.82-0.22,23.63-0.58,35.44c-5.83-0.86-10.43-5.65-15.29-8.51
		c-4.13-2.43-7.9,3.88-3.77,6.3c6.27,3.68,11.37,8.42,18.81,9.47c-0.45,12.96-0.99,25.92-1.5,38.87c-10.5-2.41-16.5-13.85-24.76-20
		c-3.82-2.85-7.55,3.48-3.77,6.3c10.02,7.47,15.49,18.78,28.24,21.06c-0.09,2.42-0.59,18.47-0.68,21.95
		c-11.48-3.98-18.26-13.13-23.39-24.29c-1.96-4.28-8.41-0.57-6.46,3.68c6.14,13.36,15.22,24.13,29.68,28.13
		c-0.14,7.67-0.24,15.35-0.19,23.02c0.01,2.24,0.07,4.48,0.09,6.72c-13.92-1.83-24.8-9.12-33.4-20.52
		c-2.82-3.74-9.31-0.11-6.46,3.68c10.25,13.59,23.22,22.21,39.96,24.14c0.51,41.21,1.92,82.25,1.6,123.52
		c-0.04,4.69,7.44,4.7,7.48,0c0.32-41.34-1.09-82.46-1.6-123.73c0.63-0.45,1.08-1.05,1.28-1.78c14.13-3.26,36.48-16.3,31.03-32.26
		C593.91,159,586.68,160.9,588.21,165.37z"/>
</g>
<g>
	<path class="st3" d="M600.6,432.59c-2.74-4.74-6.93-8.64-8.89-13.8c-1.25-3.3-6.71-1.87-5.45,1.46c2.16,5.69,6.45,9.91,9.46,15.12
		C597.51,438.46,602.39,435.69,600.6,432.59L600.6,432.59z"/>
	<path class="st3" d="M605.93,429.85c-0.27-3.01,0.13-5.94,0.61-8.91c0.24-1.48-0.39-2.94-1.97-3.39c-1.34-0.37-3.24,0.46-3.47,1.92
		c-0.55,3.44-1.11,6.88-0.81,10.37C600.59,433.36,606.24,433.39,605.93,429.85L605.93,429.85z"/>
	<path class="st3" d="M613.59,429.89c1.93-4.95,3.01-10.75,6.07-15.18c2.03-2.95-2.86-5.71-4.88-2.78
		c-3.33,4.83-4.54,11.11-6.64,16.49C606.85,431.75,612.31,433.18,613.59,429.89L613.59,429.89z"/>
	<path class="st3" d="M616.4,438.68c3.45-3.05,6.84-6.19,9.88-9.64c2.36-2.68-1.62-6.59-3.99-3.89c-3.04,3.45-6.43,6.59-9.88,9.64
		C609.7,437.17,613.71,441.06,616.4,438.68L616.4,438.68z"/>
</g>
</svg>
