<?xml version="1.0" standalone="no"?>
<!DOCTYPE svg PUBLIC "-//W3C//DTD SVG 20010904//EN"
 "http://www.w3.org/TR/2001/REC-SVG-20010904/DTD/svg10.dtd">
<svg version="1.0" xmlns="http://www.w3.org/2000/svg"
 width="700.000000pt" height="700.000000pt" viewBox="0 0 700.000000 700.000000"
 preserveAspectRatio="xMidYMid meet">
<metadata>
Created by potrace 1.11, written by Peter Selinger 2001-2013
</metadata>
<g transform="translate(0.000000,700.000000) scale(0.100000,-0.100000)"
fill="#000000" stroke="none">
<path d="M2774 5833 c-54 -141 -99 -262 -100 -269 -5 -30 -61 -132 -92 -166
-65 -72 -179 -123 -280 -127 -34 -1 -71 -4 -84 -6 -12 -3 -60 -7 -107 -10 -47
-3 -106 -7 -131 -10 -71 -6 -305 -25 -380 -30 -39 -3 -137 -11 -250 -20 -19
-2 -66 -6 -105 -9 -38 -4 -99 -9 -135 -11 -62 -4 -106 -8 -263 -20 -248 -20
-457 -197 -521 -441 -13 -50 -15 -180 -5 -269 1 -5 -2 -50 -7 -100 -10 -110
-11 -261 -1 -335 29 -218 143 -435 306 -584 19 -17 39 -36 45 -41 29 -27 159
-107 226 -138 132 -62 200 -89 325 -126 164 -50 387 -71 649 -62 32 1 37 4 30
19 -18 40 -64 185 -60 189 7 7 165 -38 236 -67 145 -58 293 -151 393 -247 l48
-46 -28 -31 c-15 -17 -30 -33 -33 -36 -3 -3 -17 -19 -33 -36 l-27 -31 143
-190 c98 -130 146 -186 153 -179 5 6 31 39 58 74 l48 63 26 -39 c15 -22 46
-66 70 -98 24 -33 81 -113 128 -179 46 -66 90 -127 97 -136 7 -8 21 -28 33
-45 11 -16 35 -49 52 -75 l33 -45 -22 -49 c-88 -199 -262 -387 -494 -533 -112
-71 -142 -98 -155 -138 -22 -66 -17 -77 142 -305 81 -115 105 -133 173 -133
50 0 57 4 298 178 137 97 253 179 260 181 7 2 48 -48 92 -113 209 -304 208
-304 281 -304 41 0 61 10 200 103 159 105 194 140 194 195 0 28 -21 88 -115
329 -61 158 -78 205 -74 209 20 16 189 135 204 143 19 10 126 31 205 40 84 9
442 10 517 0 l83 -10 -28 -51 c-14 -28 -41 -73 -58 -101 -17 -27 -34 -57 -38
-65 -4 -8 -12 -24 -19 -35 -7 -11 -37 -63 -67 -115 -30 -52 -59 -103 -65 -112
-98 -166 -106 -196 -70 -270 20 -42 35 -53 180 -128 106 -55 123 -61 162 -56
24 3 56 14 71 24 23 17 179 177 358 368 25 27 78 82 117 123 l71 73 21 -25
c11 -13 54 -66 95 -118 157 -197 546 -562 667 -625 36 -20 116 -11 151 17 41
32 189 223 212 273 20 43 18 92 -5 134 -7 15 -64 85 -125 156 -142 165 -155
190 -165 318 -4 63 -15 162 -21 193 -2 11 -6 31 -9 45 -2 14 -7 39 -10 55 -15
97 -75 353 -130 560 -29 109 -150 531 -159 555 -4 11 18 27 81 60 201 104 386
243 489 368 71 86 140 226 155 315 11 65 8 177 -6 241 -29 138 -113 297 -243
460 -67 85 -302 325 -302 309 0 -6 9 -32 20 -58 81 -188 83 -428 7 -595 -58
-125 -157 -241 -286 -334 -84 -60 -107 -68 -175 -55 -22 4 -68 10 -101 14 -33
4 -76 8 -95 11 -19 2 -55 6 -80 9 -25 3 -61 7 -80 10 -19 2 -71 7 -115 10 -44
4 -93 8 -110 10 -16 2 -73 6 -125 10 -52 3 -120 8 -150 10 -71 5 -367 15 -585
20 -235 4 -370 32 -540 110 -85 40 -85 38 -20 114 19 24 35 47 35 51 0 5 -57
57 -126 115 l-125 107 -50 -53 c-27 -30 -49 -57 -49 -61 0 -5 -7 -8 -15 -8
-32 0 -160 186 -218 317 -26 58 -27 69 -22 155 18 259 3 523 -41 718 -3 14 -8
39 -11 55 -19 107 -137 403 -193 485 -10 14 -37 54 -60 90 -48 72 -128 170
-140 170 -4 0 -52 -116 -106 -257z"/>
</g>
</svg>
